<svg width="78" height="58" viewBox="0 0 78 58" fill="none" xmlns="http://www.w3.org/2000/svg">
<path d="M10.2906 53.129L10.297 53.1337C13.404 55.4165 17.3061 56.5 21.8889 56.5C25.5101 56.5 28.6853 55.8852 31.3588 54.5873C34.0173 53.2966 36.1726 51.4144 37.8024 48.9581C39.4354 46.5342 40.5844 43.6295 41.2822 40.2813C41.9999 36.9552 42.3519 33.2084 42.3519 29.0518C42.3519 23.4542 41.6596 18.6008 40.2304 14.528C38.7917 10.4047 36.5452 7.16164 33.4445 4.90136C30.3393 2.5964 26.4498 1.5 21.8889 1.5C17.0553 1.5 13.0151 2.58556 9.91509 4.90943C6.85648 7.2023 4.69646 10.4698 3.385 14.605L3.38499 14.605L3.38316 14.6109C2.11538 18.6658 1.5 23.4899 1.5 29.0518C1.5 34.5811 2.18013 39.4069 3.58093 43.4967L3.58182 43.4993C4.99572 47.6029 7.21721 50.8454 10.2906 53.129ZM25.2339 43.5174L25.2317 43.5199C24.4717 44.4061 23.4203 44.8967 21.8889 44.8967C20.3352 44.8967 19.2767 44.3968 18.5177 43.4955C17.6673 42.4859 16.9593 40.852 16.5139 38.429C16.0898 35.9636 15.8704 32.8448 15.8704 29.0518C15.8704 25.2582 16.0899 22.139 16.5141 19.6735C16.9602 17.2245 17.6691 15.5812 18.5177 14.5736L18.5177 14.5736L18.526 14.5636C19.2882 13.6424 20.3445 13.1379 21.8889 13.1379C23.4015 13.1379 24.4485 13.6376 25.2147 14.5636L25.2242 14.575L25.2339 14.5863C26.1008 15.5927 26.8199 17.2331 27.2649 19.6803C27.7124 22.1411 27.9444 25.2576 27.9444 29.0518C27.9444 32.8692 27.7124 35.9966 27.2651 38.4568C26.8208 40.878 26.1026 42.5088 25.2339 43.5174ZM75 55.809H76.5V54.309V3.79468V2.29468H75H65.5926H65.0965L64.6982 2.5905L47.2537 15.5473L45.9613 16.5073L47.0101 17.7287L52.5287 24.1553L53.4432 25.2203L54.5664 24.3783L60.7886 19.7138L60.809 19.6985L60.8289 19.6825C61.2688 19.3288 61.7253 18.9508 62.1984 18.5489C62.1519 19.7451 62.1167 20.9207 62.0929 22.0755C62.0681 23.2564 62.0556 24.2581 62.0556 25.0784V54.309V55.809H63.5556H75Z" stroke="#F9BA46" stroke-width="3"/>
</svg>
