<svg width="92" height="50" viewBox="0 0 92 50" fill="none" xmlns="http://www.w3.org/2000/svg">
<path d="M11.1562 0C5.01049 0 0.143294 4.05807 0.319056 9.0356C0.442936 12.5439 3.10704 15.5124 6.78112 17.0082C3.21267 18.504 0.758217 21.4725 0.882096 24.9808C1.00598 28.489 3.67008 31.4576 7.34416 32.9534C3.77571 34.4492 1.32126 37.4177 1.44514 40.926C1.6209 45.9035 6.77469 49.9616 12.9204 49.9616C19.0662 49.9616 23.9334 45.9035 23.7576 40.926L23.4761 32.9534L23.3506 29.3989C25.2067 32.1048 28.6745 34.0164 32.7012 34.0164C38.4846 34.0164 43.0663 30.1964 42.9009 25.5123C42.7649 21.6623 39.4073 18.5269 35.0244 17.4857C39.3634 16.2659 42.4587 12.9902 42.3191 9.0356C42.1433 4.05807 36.9895 0 30.8437 0L21 0L11.1562 0ZM11.2313 2.12602L19.7626 2.12602L20.2505 15.9452L11.7193 15.9452C6.99229 15.9452 3.07924 12.8641 2.94406 9.0356C2.80887 5.20714 6.50433 2.12602 11.2313 2.12602ZM22.3876 2.12602L30.9188 2.12602C35.6458 2.12602 39.5589 5.20714 39.6941 9.0356C39.8292 12.8641 36.1338 15.9452 31.4068 15.9452H22.8755L22.3876 2.12602ZM11.7944 18.0712H20.3256L20.8136 31.8904H12.2823C7.55533 31.8904 3.64228 28.8092 3.5071 24.9808C3.37191 21.1523 7.06737 18.0712 11.7944 18.0712ZM22.9506 18.0712H27.3393C25.4843 18.875 24.0147 20.1003 23.0761 21.6256L22.9506 18.0712ZM32.1756 19.1342C36.5404 19.1342 40.151 21.9772 40.2759 25.5123C40.4007 29.0474 36.9909 31.8904 32.6261 31.8904C28.2613 31.8904 24.6507 29.0474 24.5259 25.5123C24.401 21.9772 27.8109 19.1342 32.1756 19.1342ZM12.3574 34.0164H20.8887L21.1326 40.926C21.2678 44.7544 17.5724 47.8355 12.8454 47.8355C8.11838 47.8355 4.20532 44.7544 4.07014 40.926C3.93495 37.0975 7.63041 34.0164 12.3574 34.0164Z" fill="#4A4949"/>
<path d="M83.4936 6.94657e-06L53.0986 6.94657e-06C52.0037 -0.00146956 50.9194 0.232444 49.9076 0.688349C48.8958 1.14426 47.9764 1.8132 47.2023 2.65686C46.4281 3.50053 45.8142 4.50234 45.3958 5.60492C44.9775 6.7075 44.7628 7.8892 44.7642 9.08232V40.9177C44.7628 42.1108 44.9775 43.2925 45.3958 44.3951C45.8142 45.4977 46.4281 46.4995 47.2023 47.3431C47.9764 48.1868 48.8958 48.8557 49.9076 49.3117C50.9194 49.7676 52.0037 50.0015 53.0986 50H83.4936C84.5885 50.0015 85.6729 49.7676 86.6846 49.3117C87.6964 48.8557 88.6158 48.1868 89.39 47.3431C90.1642 46.4995 90.778 45.4977 91.1964 44.3951C91.6147 43.2925 91.8294 42.1108 91.828 40.9177V9.08232C91.8294 7.8892 91.6147 6.7075 91.1964 5.60492C90.778 4.50234 90.1642 3.50053 89.39 2.65686C88.6158 1.8132 87.6964 1.14426 86.6846 0.688349C85.6729 0.232444 84.5885 -0.00146956 83.4936 6.94657e-06ZM89.8441 40.0843C89.8495 41.1033 89.6701 42.1134 89.3161 43.0566C88.9621 43.9998 88.4405 44.8574 87.7813 45.5802C87.1221 46.3029 86.3384 46.8766 85.4751 47.2682C84.6118 47.6598 83.686 47.8616 82.7509 47.862H53.8428C51.9562 47.8591 50.1476 47.041 48.8135 45.5873C47.4795 44.1335 46.7288 42.1627 46.7261 40.1067V9.89167C46.7288 7.83574 47.4795 5.86487 48.8135 4.41111C50.1476 2.95736 51.9562 2.13933 53.8428 2.13636L82.7274 2.13636C84.6147 2.13679 86.4246 2.954 87.7592 4.40831C89.0938 5.86262 89.8437 7.83496 89.8441 9.89167V40.0843ZM63.3715 23.3973L68.8645 34.8917C68.9645 35.0664 68.9042 35.233 68.7483 35.233H65.3319C65.1187 35.233 65.0186 35.1753 64.926 34.9574C63.6715 32.1367 62.3905 29.316 61.0801 26.2853H61.0433C59.8375 29.2037 58.5937 32.1032 57.3122 34.983C57.2225 35.1497 57.1225 35.2154 56.9607 35.2154H53.7266C53.5281 35.2154 53.5134 35.0407 53.6134 34.9157L58.9829 23.7627L53.7899 12.4784C53.6663 12.3037 53.7899 12.1771 53.9031 12.1771H57.2739C57.4725 12.1771 57.5504 12.2203 57.6269 12.4095C58.8784 15.2525 60.1016 18.1102 61.2963 20.9821H61.3331C62.4743 18.1614 63.7318 15.2317 64.9407 12.4351C65.0407 12.2604 65.101 12.1514 65.2937 12.1514H68.4483C68.6086 12.1514 68.6704 12.286 68.5719 12.4527L63.3715 23.3973ZM69.8278 26.8783C69.8278 21.9037 72.8619 18.0124 77.6873 18.0124C78.1005 18.0124 78.3152 18.0124 78.7065 18.0556V12.3966C78.7065 12.262 78.805 12.1787 78.905 12.1787H81.9994C82.1597 12.1787 82.1994 12.2444 82.1994 12.3453V31.97C82.1994 32.5454 82.1994 33.2714 82.2994 34.0551C82.2994 34.1897 82.2597 34.2298 82.1391 34.2987C80.5711 35.1106 78.8571 35.5326 77.121 35.5343C72.8619 35.5584 69.8278 32.696 69.8278 26.8783ZM78.7079 21.41C78.3457 21.2592 77.9602 21.1857 77.5725 21.1937C75.1003 21.1937 73.3766 23.2707 73.3766 26.7117C73.3766 30.643 75.1371 32.22 77.3593 32.22C77.8255 32.22 78.3403 32.1623 78.7079 31.9876V21.41Z" fill="#4A4949"/>
</svg>
