<svg width="50" height="50" viewBox="0 0 50 50" fill="none" xmlns="http://www.w3.org/2000/svg">
<path d="M24.4893 0C10.9851 0 0.229071 11.2142 0.510671 25C0.792272 38.7858 12.0065 50 25.5107 50C39.0149 50 49.7709 38.7858 49.4893 25C49.2077 11.2142 37.9935 0 24.4893 0ZM24.5133 1.17187C37.3957 1.17187 48.0728 11.849 48.3414 25C48.61 38.151 38.3691 48.8281 25.4867 48.8281C12.6043 48.8281 1.92724 38.151 1.65861 25C1.38997 11.849 11.6309 1.17187 24.5133 1.17187ZM24.5625 3.58073C17.2205 3.58073 10.8571 7.38932 7.22136 13.2161C7.71595 13.2324 8.16203 13.2161 8.56062 13.2161C10.7608 13.2161 14.1674 12.9557 14.1674 12.9557C15.2981 12.8906 15.4601 14.5752 14.3309 14.7135C14.3309 14.7135 13.179 14.9089 11.9128 14.974L20.0391 38.151L24.3436 24.0885L20.905 14.974C19.7716 14.9089 18.6675 14.7135 18.6675 14.7135C17.5342 14.6484 17.6259 12.8906 18.7592 12.9557C18.7592 12.9557 22.2482 13.2161 24.3129 13.2161C26.5131 13.2161 29.9197 12.9557 29.9197 12.9557C31.0504 12.8906 31.2123 14.5752 30.0831 14.7135C30.0831 14.7135 28.9233 14.9089 27.665 14.974L35.725 38.0208L37.6832 30.8594C38.6866 28.0762 39.1729 25.7324 39.1353 23.8932C39.0811 21.2402 38.1279 19.458 37.2937 18.0339C36.1974 16.2679 35.1853 14.7217 35.1492 12.9557C35.109 10.9863 36.5149 9.17969 38.5796 9.17969C38.6753 9.17969 38.7391 9.17969 38.8347 9.17969C35.0245 5.68034 30.0311 3.58073 24.5625 3.58073ZM43.2207 14.7135C43.3303 15.3971 43.3773 16.1377 43.3934 16.9271C43.4378 19.0999 43.0892 21.5495 41.956 24.6094L35.9655 43.5547C42.1395 39.8356 46.1433 32.9102 45.9817 25C45.9056 21.2728 44.9252 17.7653 43.2207 14.7135ZM5.62573 16.276C4.51621 18.9372 3.95476 21.8913 4.01826 25C4.19164 33.488 9.13196 40.7959 16.2101 44.2708L5.62573 16.276ZM25.4212 26.888L19.4892 45.5729C21.382 46.1344 23.3728 46.4193 25.4375 46.4193C27.8849 46.4193 30.1967 46.0286 32.365 45.2474C32.3074 45.1579 32.2728 45.0277 32.2308 44.9219L25.4212 26.888Z" fill="#4A4949"/>
</svg>
