<svg width="137" height="50" viewBox="0 0 137 50" fill="none" xmlns="http://www.w3.org/2000/svg">
<path d="M0 0L4.98786 44.7263L23.2356 49.9882L41.2232 44.7263C42.1488 29.818 43.0744 14.9083 44 0L0 0ZM2.89086 2.63096L41.2392 2.63096L38.7515 42.694L23.1679 47.2519L7.35904 42.694L2.89086 2.63096ZM12.62 10.5238L11.7666 26.3096L28.5775 26.3096L28.2092 32.887L22.833 33.7015L17.4822 32.887L17.1821 30.256L12.1876 30.256L12.8557 36.8334L22.9628 39.4644L32.9525 36.8334L33.8438 21.0477H17.46L17.7445 15.7858L28.5625 15.7858L28.9258 18.4167H33.713L32.6131 10.5238L12.62 10.5238Z" fill="#4A4949"/>
<path fill-rule="evenodd" clip-rule="evenodd" d="M86.4329 44.7368L68.2356 50L50.1976 44.7368L46.9922 0L90.9922 0C89.4725 14.9106 87.9527 29.8263 86.4329 44.7368ZM88.1265 2.63158L49.7782 2.63158L52.6498 42.7015L68.277 47.2656L84.0423 42.7015L88.1265 2.63158ZM57.9434 28.9474H63.1199L63.1965 32.2368L68.4766 34.0769L73.8123 32.2368L74.2861 26.3158H62.9019L62.7187 21.0526H74.6286L75.0924 15.7895L57.2377 15.7895L56.928 10.5263L80.6114 10.5263L79.8051 21.0526L78.6662 36.1842L68.3929 39.6073L58.2232 36.1842L57.9434 28.9474Z" fill="#4A4949"/>
<path d="M95.6126 0C94.0821 0 92.7939 1.4369 92.7652 3.17607L92.0447 46.8226C92.0159 48.5618 93.2567 49.9987 94.7872 49.9987H133.197C134.728 49.9987 136.016 48.5664 136.045 46.8226L136.765 3.17607C136.794 1.4369 135.557 0 134.023 0H95.6126ZM95.5733 2.38089H133.983C134.372 2.38089 134.677 2.7343 134.67 3.17607L133.949 46.8226C133.942 47.2644 133.625 47.6178 133.237 47.6178H94.8265C94.4378 47.6178 94.1326 47.2644 94.1399 46.8226L94.8604 3.17607C94.8677 2.7343 95.1846 2.38089 95.5733 2.38089ZM112.349 22.6184L112.102 37.5873C112.064 39.8845 111.289 40.4751 109.959 40.4751C108.568 40.4751 107.618 39.4893 107.001 38.2105L103.673 40.4751C104.589 42.7676 106.885 45.2369 110.126 45.2369C113.711 45.2369 116.202 43.0699 116.28 38.3128L116.539 22.6184H112.349ZM125.395 22.6184C121.827 22.6184 119.496 25.2132 119.44 28.6218C119.379 32.3187 121.269 34.0672 124.131 35.4622L125.122 35.9505C126.928 36.8573 127.819 37.4106 127.793 38.9684C127.772 40.2658 126.889 41.2052 125.232 41.2052C123.259 41.2052 122.351 39.6846 121.522 38.0942L118.34 40.4751C119.471 43.1118 121.543 45.2369 125.255 45.2369C129.053 45.2369 131.917 42.9955 131.985 38.908C132.047 35.1135 130.16 33.4254 126.787 31.77L125.796 31.2864C124.096 30.44 123.36 29.8913 123.382 28.5288C123.401 27.4267 124.159 26.5804 125.33 26.5804C126.48 26.5804 127.207 27.1338 127.867 28.5288L131.019 26.2595C129.749 23.6229 127.936 22.6184 125.395 22.6184Z" fill="#4A4949"/>
</svg>
