<svg width="78" height="58" viewBox="0 0 78 58" fill="none" xmlns="http://www.w3.org/2000/svg">
<path d="M9.26027 53.0726L9.26661 53.0779C12.0499 55.3943 15.5607 56.5 19.6758 56.5C22.9177 56.5 25.7738 55.8757 28.1806 54.5522C30.5674 53.2397 32.4801 51.3375 33.9157 48.8867C35.354 46.4685 36.3631 43.5765 36.9757 40.2462C37.6069 36.9334 37.9169 33.1988 37.9169 29.0518C37.9169 23.4689 37.3074 18.6347 36.0516 14.5807C34.7899 10.4852 32.8137 7.23709 30.0529 4.95726C27.2721 2.61931 23.7726 1.5 19.6758 1.5C15.3432 1.5 11.708 2.60585 8.92829 4.96624C6.20565 7.27812 4.30715 10.5487 3.15773 14.654L3.15772 14.654L3.15625 14.6594C2.042 18.6963 1.5 23.5027 1.5 29.0518C1.5 34.5665 2.09878 39.3735 3.32987 43.4448L3.33059 43.4472C4.57051 47.5234 6.5246 50.7702 9.26027 53.0726ZM22.4382 43.5884L22.4362 43.5909C21.7787 44.4594 20.9153 44.8967 19.6758 44.8967C18.4178 44.8967 17.5479 44.4511 16.8904 43.5668C16.1374 42.5541 15.5053 40.9039 15.1085 38.4589C14.7322 35.9808 14.5381 32.8512 14.5381 29.0518C14.5381 25.2519 14.7323 22.1219 15.1087 19.6437C15.506 17.1729 16.1388 15.5131 16.8904 14.5023L16.8904 14.5024L16.8979 14.4921C17.5597 13.5861 18.4285 13.1379 19.6758 13.1379C20.8937 13.1379 21.7548 13.5803 22.4209 14.4921L22.4294 14.5038L22.4382 14.5153C23.2051 15.5239 23.8473 17.1802 24.2438 19.6497C24.6409 22.1236 24.8461 25.2512 24.8461 29.0518C24.8461 32.8752 24.641 36.0136 24.244 38.4869C23.8481 40.9309 23.2067 42.5777 22.4382 43.5884ZM75 55.809H76.5V54.309V45.3256V43.8256H75H57.32L61.3714 39.7949C64.1996 37.0379 66.6228 34.513 68.6364 32.2217C70.7216 29.874 72.337 27.4704 73.4556 25.0077C74.5991 22.4904 75.1594 19.7307 75.1594 16.7515C75.1594 13.9053 74.4892 11.3104 73.1193 9.00821C71.7485 6.68152 69.7935 4.85867 67.2993 3.5405C64.7925 2.20401 61.8475 1.5691 58.5204 1.5691C55.5532 1.5691 52.9321 1.92699 50.6892 2.68261C48.5375 3.39207 46.6127 4.34288 44.9292 5.54557L44.9291 5.54554L44.921 5.55146C43.3517 6.68854 41.8597 7.89756 40.4454 9.1786L39.4004 10.1251L40.2804 11.2266L45.7736 18.1024L46.7524 19.3276L47.933 18.2953C49.7624 16.6954 51.4826 15.4939 53.0929 14.6644C54.6372 13.8689 56.2012 13.4834 57.8011 13.4834C59.2649 13.4834 60.2662 13.894 60.9754 14.5811L60.9872 14.5924L60.9991 14.6035C61.6597 15.2161 62.1213 16.2467 62.1213 17.9953C62.1213 19.4432 61.8279 20.781 61.2478 22.0266L61.2439 22.035L61.2401 22.0435C60.6613 23.3279 59.6828 24.8235 58.2523 26.5351L58.2515 26.5361C56.8138 28.2594 54.8932 30.4263 52.484 33.041C52.4827 33.0424 52.4813 33.0439 52.48 33.0454L40.4881 45.8553L40.0831 46.2879V46.8804V54.309V55.809H41.5831H75Z" stroke="#F9BA46" stroke-width="3"/>
</svg>
