<svg width="80" height="58" viewBox="0 0 80 58" fill="none" xmlns="http://www.w3.org/2000/svg">
<path d="M9.52769 53.0884L9.53407 53.0936C12.4018 55.401 16.0138 56.5 20.2486 56.5C23.588 56.5 26.5263 55.8786 29.0021 54.5623C31.4598 53.2557 33.4358 51.3587 34.922 48.9057C36.4107 46.4857 37.456 43.5903 38.0905 40.2555C38.744 36.9392 39.0649 33.2014 39.0649 29.0518C39.0649 23.4648 38.434 18.6253 37.1332 14.5662C35.8258 10.4634 33.7796 7.21634 30.9301 4.9415C28.0646 2.61238 24.4644 1.5 20.2486 1.5C15.7876 1.5 12.0477 2.59969 9.18443 4.95026C6.37395 7.25747 4.40767 10.5278 3.21642 14.6412L3.21641 14.6412L3.21485 14.6467C2.06096 18.6884 1.5 23.4994 1.5 29.0518C1.5 34.5703 2.11978 39.3821 3.39471 43.4584L3.39548 43.4608C4.68033 47.5445 6.70376 50.7907 9.52769 53.0884ZM23.162 43.569L23.16 43.5715C22.4771 44.4436 21.5655 44.8967 20.2486 44.8967C18.9123 44.8967 17.9942 44.435 17.3115 43.5473C16.5337 42.536 15.8819 40.8905 15.4724 38.4512C15.0836 35.9764 14.883 32.8496 14.883 29.0518C14.883 25.2536 15.0837 22.1264 15.4725 19.6514C15.8825 17.1862 16.5352 15.5311 17.3115 14.5218L17.3115 14.5218L17.3193 14.5116C18.006 13.6028 18.9227 13.1379 20.2486 13.1379C21.5447 13.1379 22.4533 13.5973 23.1442 14.5116L23.153 14.5232L23.162 14.5347C23.9544 15.5421 24.6166 17.1938 25.0258 19.6577C25.436 22.1282 25.6481 25.2529 25.6481 29.0518C25.6481 32.8735 25.436 36.009 25.026 38.4789C24.6174 40.9171 23.9561 42.5594 23.162 43.569ZM74.9272 30.561C73.5103 29.194 71.7351 28.1692 69.6427 27.4533C70.1457 27.1807 70.6336 26.8848 71.1063 26.5653C72.9262 25.3506 74.3742 23.78 75.4365 21.868C76.5291 19.9012 77.0457 17.6252 77.0457 15.093C77.0457 10.8105 75.3434 7.38034 71.9451 4.98692C68.6331 2.65436 64.2586 1.5691 58.9735 1.5691C55.2412 1.5691 51.9488 2.05687 49.1295 3.07487L49.1295 3.07487L49.1256 3.07629C46.4175 4.06265 44.021 5.3125 41.9514 6.83674L40.8065 7.67999L41.5874 8.86831L46.4238 16.2278L47.2557 17.4937L48.5134 16.6494C49.2519 16.1536 50.12 15.638 51.1224 15.1038L51.1337 15.0977L51.145 15.0915C52.0785 14.5731 53.1404 14.1286 54.3376 13.7638L54.3456 13.7613L54.3537 13.7588C55.4947 13.397 56.7823 13.207 58.2294 13.207C60.6223 13.207 61.9508 13.6997 62.6155 14.3221C63.3321 14.9932 63.7642 15.966 63.7642 17.4425C63.7642 18.5239 63.5253 19.4396 63.0792 20.2284L63.0791 20.2283L63.0739 20.2377C62.7498 20.8206 62.0353 21.4472 60.6182 21.9783C59.2875 22.4625 57.1874 22.7492 54.2048 22.7492H50.383H48.883V24.2492V32.4379V33.9379H50.383H54.1371C57.1706 33.9379 59.405 34.1897 60.9156 34.6364L60.9207 34.6379C62.4935 35.097 63.3521 35.6986 63.7777 36.2878C64.2609 36.9565 64.5421 37.8208 64.5421 38.9681C64.5421 41.0218 63.9106 42.4436 62.7832 43.4411C61.7256 44.3739 59.5907 45.0349 55.9296 45.0349C54.0614 45.0349 52.0168 44.7776 49.7901 44.248C47.5857 43.7008 45.4788 42.9029 43.4671 41.8535L41.2733 40.709V43.1834V52.2704V53.2455L42.1644 53.6413C44.3492 54.6117 46.6695 55.3244 49.1213 55.7825C51.5929 56.263 54.2358 56.5 57.0457 56.5C61.7961 56.5 65.8056 55.8159 68.9978 54.3609C72.1504 52.924 74.5707 50.9093 76.1523 48.2795C77.7263 45.6996 78.5 42.789 78.5 39.59C78.5 35.9346 77.343 32.8696 74.9272 30.561Z" stroke="#F9BA46" stroke-width="3"/>
</svg>
