<svg width="268" height="353" viewBox="0 0 268 353" fill="none" xmlns="http://www.w3.org/2000/svg">
<g filter="url(#filter0_d_285_82)">
<path fill-rule="evenodd" clip-rule="evenodd" d="M88.6967 105.13C87.9233 99.0802 88.7334 93.9644 91.5901 89.9078L91.0955 89.5307C88.1161 93.7614 87.3033 99.06 88.0897 105.212C88.8755 111.359 91.2614 118.388 94.7137 126.118C100.146 138.281 108.247 152.241 116.994 167.313C119.362 171.393 121.777 175.555 124.2 179.785C135.577 199.652 147.125 221.036 154.732 242.589C162.34 264.143 165.997 285.838 161.627 306.336L162.225 306.476C166.631 285.813 162.935 263.985 155.307 242.372C147.678 220.759 136.105 199.332 124.725 179.461C122.297 175.22 119.877 171.051 117.507 166.966C108.763 151.899 100.686 137.981 95.2689 125.852C91.827 118.145 89.4706 111.184 88.6967 105.13Z" fill="#7C7C7C"/>
<path fill-rule="evenodd" clip-rule="evenodd" d="M93.754 105.949C93.2611 100.019 94.2285 94.964 97.0902 90.9004L96.5956 90.5233C93.6212 94.7469 92.6426 99.9697 93.144 106.001C93.6449 112.029 95.6251 118.887 98.5925 126.413C103.339 138.45 110.636 152.255 118.525 167.179C120.497 170.912 122.507 174.714 124.523 178.576C134.609 197.896 144.864 218.732 151.504 239.875C158.143 261.018 161.158 282.443 156.786 302.948L157.384 303.088C161.789 282.431 158.744 260.882 152.086 239.68C145.428 218.477 135.149 197.598 125.061 178.274C123.04 174.402 121.027 170.593 119.052 166.857C111.165 151.936 103.891 138.174 99.159 126.173C96.2016 118.673 94.2473 111.884 93.754 105.949Z" fill="#67A949"/>
<path d="M31.0844 47.6711C44.7057 49.2824 56.1758 50.6767 56.0822 54.6344C55.9885 58.592 47.3326 63.468 33.6341 63.0269C13.3878 65.3785 5.14037 57.1832 5.23401 53.2255C5.32766 49.2679 7.02978 44.8256 31.0844 47.6711Z" fill="#F5F5F5"/>
<path fill-rule="evenodd" clip-rule="evenodd" d="M30.2617 62.6765L30.2934 62.6776C37.0926 62.8965 42.6174 61.7946 46.438 60.1647C48.3494 59.3493 49.8193 58.4082 50.81 57.448C51.806 56.4827 52.2802 55.5365 52.2998 54.7054C52.3173 53.9678 51.8067 53.2569 50.5733 52.5678C49.3536 51.8862 47.5517 51.3014 45.283 50.7814C40.7522 49.7431 34.5058 48.9942 27.6866 48.1876C15.661 46.765 9.31253 47.179 5.97207 48.391C4.31927 48.9907 3.43674 49.7739 2.9503 50.5972C2.45853 51.4296 2.33727 52.3588 2.31443 53.3243C2.29445 54.1686 2.72529 55.322 3.76314 56.564C4.79374 57.7974 6.39662 59.0841 8.64219 60.1868C13.1314 62.3914 20.1677 63.8489 30.2302 62.6802L30.2617 62.6765ZM30.2831 63.1118C43.9817 63.5529 52.6376 58.6769 52.7312 54.7193C52.8249 50.7616 41.3548 49.3673 27.7335 47.756C3.67882 44.9105 1.97671 49.3528 1.88306 53.3104C1.78941 57.2681 10.0369 65.4634 30.2831 63.1118Z" fill="#7C7C7C"/>
<path fill-rule="evenodd" clip-rule="evenodd" d="M51.013 24.7263L51.0169 24.7718C51.5339 30.7096 52.7327 35.8026 54.3398 39.3517C55.1439 41.1275 56.0394 42.4925 56.982 43.3862C57.9204 44.276 58.8788 44.6762 59.8378 44.5993C60.7873 44.5232 61.698 43.9336 62.527 42.8197C63.3558 41.7061 64.0702 40.1089 64.6229 38.1242C65.7274 34.1582 66.1612 28.7374 65.6449 22.808C65.1291 16.884 63.6326 11.324 61.7226 7.30272C60.7668 5.29034 59.7174 3.68439 58.6529 2.61026C57.5826 1.53029 56.5522 1.04044 55.6184 1.11528C54.7049 1.18849 53.7312 1.92846 52.8231 3.33346C51.9268 4.72036 51.153 6.6691 50.6122 8.96056C49.5305 13.5434 49.4016 19.4056 50.9997 24.6825L51.013 24.7263ZM50.5871 24.8062C51.6263 36.7418 55.4126 45.3901 59.8755 45.0325C64.3384 44.6748 67.1139 34.7091 66.0747 22.7735C65.0356 10.8379 60.0436 0.324453 55.5807 0.682125C51.1178 1.0398 47.3393 14.0823 50.5871 24.8062Z" fill="#7C7C7C"/>
<path d="M65.8828 24.6947C66.9219 36.6303 64.1464 46.596 59.6835 46.9537C55.2206 47.3113 51.4343 38.663 50.3951 26.7274C47.1473 16.0035 50.7673 4.55084 55.2302 4.19317C59.6931 3.83549 64.8436 12.7591 65.8828 24.6947Z" fill="#F5F5F5"/>
<path d="M87.6612 39.2917C79.4002 49.2825 69.8791 55.0064 66.3952 52.0764C62.9114 49.1464 66.7841 38.672 75.0451 28.6812C81.1225 16.7025 92.8273 12.9664 96.3111 15.8964C99.795 18.8265 100.784 25.6371 87.6612 39.2917Z" fill="#F5F5F5"/>
<path fill-rule="evenodd" clip-rule="evenodd" d="M90.8193 36.5126L90.8304 36.501C97.3735 29.6928 100.346 24.6419 101.276 20.9745C101.739 19.1478 101.693 17.677 101.342 16.5028C100.992 15.3301 100.329 14.4256 99.5165 13.7419C98.7687 13.113 97.517 12.7983 95.8889 12.9197C94.2731 13.0401 92.3475 13.5872 90.3258 14.6002C86.2849 16.625 81.9065 20.4881 78.91 26.3942L78.8884 26.4369L78.858 26.4737C74.7498 31.442 71.7451 36.5168 70.2007 40.694C69.4277 42.7846 69.0293 44.6271 69.0271 46.1068C69.025 47.5902 69.4187 48.6412 70.1506 49.2567C70.8824 49.8722 71.9783 50.074 73.4248 49.8054C74.8677 49.5374 76.5934 48.8111 78.4937 47.6686C82.2908 45.3859 86.701 41.4932 90.8091 36.5249L90.8193 36.5126ZM78.5255 26.194C70.2644 36.1849 66.3917 46.6592 69.8756 49.5893C73.3594 52.5193 82.8805 46.7954 91.1416 36.8045C104.265 23.15 103.275 16.3393 99.7915 13.4093C96.3076 10.4793 84.6029 14.2153 78.5255 26.194Z" fill="#7C7C7C"/>
<path d="M39.1832 30.7883C47.506 38.7774 56.8678 49.8227 54.3307 52.5052C60.8886 63.1349 38.5507 49.2879 30.2279 41.2987C20.7397 34.3436 16.9824 23.8621 19.5195 21.1797C22.0567 18.4972 31.208 20.7292 39.1832 30.7883Z" fill="#F5F5F5"/>
<path fill-rule="evenodd" clip-rule="evenodd" d="M38.6711 28.0991L38.6526 28.0758C34.7042 23.0956 30.4805 20.0737 26.9577 18.6261C25.1949 17.9017 23.6215 17.5771 22.3536 17.5873C21.0784 17.5976 20.1636 17.9441 19.6389 18.4987C19.1335 19.0331 18.8839 20.0318 19.0233 21.4558C19.1608 22.8605 19.6701 24.5897 20.5593 26.4709C22.3366 30.2306 25.6011 34.5322 30.2857 37.9662L30.3091 37.9833L30.33 38.0034C34.4587 41.9666 42.0906 47.4034 47.8667 50.5194C49.3086 51.2973 50.6255 51.9254 51.7365 52.349C52.8628 52.7785 53.7253 52.9769 54.2803 52.9462C54.5528 52.9312 54.6969 52.8637 54.77 52.7973C54.8318 52.7411 54.8937 52.6398 54.8935 52.4181C54.8933 52.1857 54.8228 51.8529 54.6386 51.3981C54.4563 50.9478 54.1724 50.4018 53.7705 49.7504L53.594 49.4643L53.8229 49.2222C54.0346 48.9984 54.15 48.6635 54.1245 48.1665C54.0988 47.6639 53.9293 47.0347 53.6137 46.2894C52.9835 44.8008 51.816 42.9525 50.2913 40.9145C47.247 36.845 42.844 32.1047 38.6926 28.1197L38.6711 28.0991ZM30.0337 38.3168C38.3565 46.3059 60.6944 60.153 54.1365 49.5232C56.6736 46.8408 47.3118 35.7955 38.989 27.8064C31.0138 17.7472 21.8624 15.5153 19.3253 18.1977C16.7882 20.8802 20.5455 31.3617 30.0337 38.3168Z" fill="#7C7C7C"/>
<path d="M77.1181 30.2473C73.1658 41.5909 66.3257 50.5732 62.3214 49.1296C58.317 47.686 60.2935 32.6521 64.2458 21.3085C69.6 9.74806 73.8493 6.66982 77.8537 8.11341C81.858 9.557 81.8572 19.9274 77.1181 30.2473Z" fill="#F5F5F5"/>
<path fill-rule="evenodd" clip-rule="evenodd" d="M78.5193 26.9579L78.5279 26.9392C80.8769 21.8241 82.0445 16.7097 82.1351 12.7152C82.1803 10.716 81.9553 9.02124 81.4915 7.75379C81.0268 6.48354 80.3462 5.69967 79.5129 5.39926C78.5856 5.06496 77.6569 4.99537 76.7018 5.23864C75.7415 5.48323 74.7278 6.0511 73.6486 7.03459C71.4836 9.00754 69.1147 12.5975 66.4478 18.3524C64.4853 23.9905 63.0147 30.5408 62.5313 35.8516C62.289 38.5133 62.2972 40.8384 62.6035 42.5729C62.7567 43.4404 62.9807 44.1375 63.269 44.65C63.5557 45.1595 63.8912 45.4626 64.2656 45.5976C65.083 45.8922 66.1157 45.6793 67.3339 44.8939C68.544 44.1136 69.8636 42.8125 71.2003 41.0912C73.8706 37.6522 76.5484 32.6145 78.5125 26.9774L78.5193 26.9579ZM66.0475 18.1854C62.0952 29.529 60.1188 44.5629 64.1231 46.0065C68.1275 47.4501 74.9675 38.4678 78.9198 27.1242C83.659 16.8043 83.6598 6.43389 79.6554 4.9903C75.6511 3.54671 71.4017 6.62495 66.0475 18.1854Z" fill="#7C7C7C"/>
<path d="M53.5346 27.5854C57.9651 42.648 65.2129 49.7487 57.4377 51.4274C52.4803 59.1432 38.3965 32.8448 38.3965 32.8448C38.3965 32.8448 27.2729 13.0503 34.819 8.88114C37.8379 7.21317 49.1042 12.5229 53.5346 27.5854Z" fill="#F5F5F5"/>
<path fill-rule="evenodd" clip-rule="evenodd" d="M55.4003 46.2771L55.5734 46.2397C57.4545 45.8336 58.2699 45.1362 58.5478 44.2194C58.8463 43.2345 58.5856 41.8457 57.8873 39.9079C57.4182 38.6061 56.7768 37.1184 56.0416 35.4129C55.6925 34.6032 55.3223 33.7443 54.9393 32.833C53.7551 30.0155 52.4646 26.7307 51.3505 22.943C49.1602 15.4965 45.2866 10.4804 41.6101 7.53579C39.7701 6.06202 37.9864 5.11259 36.4951 4.6329C34.9767 4.14446 33.8538 4.17075 33.2584 4.49973C31.5681 5.43364 30.8732 7.25786 30.8554 9.62841C30.8377 11.9982 31.5027 14.8089 32.4161 17.5274C33.327 20.2389 34.4734 22.8256 35.3938 24.737C35.8536 25.692 36.2562 26.4767 36.5435 27.0222C36.6872 27.2949 36.802 27.5077 36.8807 27.6519C36.92 27.7241 36.9503 27.779 36.9707 27.8158L36.9937 27.8572L36.9994 27.8673L37.001 27.8703C37.0011 27.8704 37.0011 27.8704 36.6259 28.082C36.6259 28.082 25.5024 8.28758 33.0485 4.11839C36.0674 2.45041 47.3337 7.7601 51.7641 22.8227C53.2264 27.7941 54.9956 31.8982 56.4302 35.2262C59.3424 41.9818 60.8762 45.54 55.6672 46.6646C50.7098 54.3804 36.6259 28.082 36.6259 28.082C37.0053 27.8782 37.0054 27.8782 37.0055 27.8784L37.0151 27.8964L37.045 27.9517C37.0715 28.0007 37.111 28.0734 37.1628 28.1682C37.2665 28.3577 37.4195 28.6351 37.6161 28.9857C38.0093 29.6869 38.5769 30.6806 39.2735 31.8492C40.6675 34.1878 42.5747 37.2205 44.6331 40.0094C46.6997 42.8094 48.8884 45.3213 50.8411 46.6574C51.8192 47.3266 52.6847 47.6634 53.4125 47.647C54.105 47.6314 54.7469 47.2941 55.3043 46.4265L55.4003 46.2771ZM36.6259 28.082L37.001 27.8703L37.0032 27.8743L37.0055 27.8784L36.6259 28.082Z" fill="#7C7C7C"/>
<path d="M34.5879 38.2191C47.3797 41.9786 56.9322 47.9204 55.924 51.4904C54.9159 55.0605 43.7288 54.9069 30.937 51.1474C12.6286 47.8726 8.59273 41.4462 9.60087 37.8761C10.609 34.3061 14.2417 30.4153 34.5879 38.2191Z" fill="#F5F5F5"/>
<path fill-rule="evenodd" clip-rule="evenodd" d="M29.6874 36.9426L29.6712 36.9364C19.5089 33.0386 13.599 32.0954 10.1328 32.525C8.41312 32.7382 7.31861 33.2865 6.5975 33.9577C5.87431 34.6309 5.48921 35.4623 5.24999 36.3095C4.81306 37.8567 5.42637 40.188 8.52093 42.5905C11.6137 44.9916 17.1219 47.3995 26.2432 49.031L26.2663 49.0351L26.2888 49.0417C32.6582 50.9137 38.6131 51.883 43.0858 51.9444C45.3253 51.9751 47.1678 51.7777 48.4979 51.3674C49.8481 50.9509 50.5522 50.3551 50.7429 49.6798C50.9336 49.0045 50.6482 48.1178 49.7221 47.0323C48.8098 45.963 47.3526 44.7958 45.4404 43.6063C41.6212 41.2308 36.0735 38.8195 29.7041 36.9475L29.6874 36.9426ZM26.1711 49.4588C38.9628 53.2182 50.1499 53.3718 51.158 49.8018C52.1662 46.2317 42.6137 40.29 29.8219 36.5305C9.47569 28.7267 5.84303 32.6174 4.83488 36.1875C3.82674 39.7575 7.86256 46.184 26.1711 49.4588Z" fill="#7C7C7C"/>
<path d="M58.9762 55.1287C62.5459 58.1846 58.1244 70.0409 48.3014 81.7086C40.436 95.5983 28.7395 101.949 23.4037 97.3814C19.834 94.3255 24.9034 82.3896 34.7264 70.7219C44.5495 59.0541 55.4065 52.0728 58.9762 55.1287Z" fill="#F5F5F5"/>
<path fill-rule="evenodd" clip-rule="evenodd" d="M45.1328 84.6191L45.1584 84.5887C50.0475 78.7815 53.5808 72.9402 55.4468 68.1892C56.3807 65.8114 56.8881 63.729 56.9515 62.0726C57.0154 60.4057 56.629 59.258 55.8854 58.6214C55.15 57.9919 53.975 57.8259 52.3543 58.2202C50.7453 58.6116 48.7918 59.5354 46.6178 60.9333C42.2744 63.7262 37.1355 68.3566 32.2437 74.1671C27.3518 79.9776 23.6549 85.8423 21.6268 90.6173C20.6117 93.0074 20.0249 95.1011 19.903 96.7655C19.7802 98.4421 20.1333 99.5844 20.8687 100.214C23.3139 102.307 27.336 101.983 31.8675 99.2558C36.3661 96.5484 41.2089 91.5486 45.1132 84.6537L45.1328 84.6191ZM45.4885 84.8713C37.6231 98.761 25.9267 105.112 20.5908 100.544C17.0211 97.4881 22.0905 85.5523 31.9136 73.8845C41.7367 62.2168 52.5936 55.2355 56.1633 58.2913C59.733 61.3472 55.3116 73.2035 45.4885 84.8713Z" fill="#7C7C7C"/>
<path d="M58.688 94.3977C55.1584 119.509 50.1301 117.715 46.0664 116.738C42.0028 115.761 37.9815 105.841 43.9722 90.8596C46.9667 77.8078 52.6885 68.0191 56.7522 68.9961C60.8159 69.9731 61.6825 81.3458 58.688 94.3977Z" fill="#F5F5F5"/>
<path fill-rule="evenodd" clip-rule="evenodd" d="M58.3193 90.6594L58.3235 90.6411C59.8137 84.1458 60.3387 78.085 59.9926 73.5431C59.8193 71.2695 59.4295 69.4019 58.8504 68.0565C58.267 66.7015 57.5313 65.9605 56.7111 65.7633C55.891 65.5661 54.9099 65.8943 53.7983 66.8419C52.6946 67.7827 51.5334 69.2773 50.3895 71.2343C48.1043 75.1436 45.9388 80.81 44.4485 87.3053L44.441 87.3381L44.4285 87.3693C41.4569 94.8006 40.9817 100.944 41.7301 105.325C42.1044 107.516 42.783 109.256 43.5976 110.496C44.4161 111.742 45.3475 112.451 46.2193 112.66C46.3045 112.681 46.3895 112.702 46.4742 112.722C47.4245 112.953 48.3435 113.176 49.2752 113.103C50.2552 113.025 51.2727 112.613 52.3061 111.41C53.3539 110.19 54.4185 108.155 55.442 104.832C56.4639 101.515 57.436 96.9434 58.3167 90.6779L58.3193 90.6594ZM44.0281 87.2042C38.0374 102.185 42.0587 112.106 46.1223 113.083C46.2095 113.104 46.2971 113.125 46.3852 113.147C50.401 114.125 55.2901 115.315 58.7439 90.7422C61.7385 77.6903 60.8718 66.3177 56.8081 65.3407C52.7444 64.3637 47.0226 74.1523 44.0281 87.2042Z" fill="#7C7C7C"/>
<path d="M57.0994 53.7143C67.2365 58.2185 54.116 66.8608 37.2637 74.5998C16.6855 84.0498 10.9945 85.0931 7.71928 77.961C5.95814 74.126 10.893 63.7162 31.4502 61.9404C44.3691 59.7161 55.4002 50.0141 57.0994 53.7143Z" fill="#F5F5F5"/>
<path fill-rule="evenodd" clip-rule="evenodd" d="M52.196 54.3887L52.1269 54.2381C51.9797 53.9178 51.7493 53.7488 51.3886 53.6865C50.9952 53.6186 50.4492 53.6817 49.732 53.8878C48.301 54.2991 46.3972 55.2143 44.092 56.341C43.9708 56.4002 43.8486 56.46 43.7254 56.5202C39.1966 58.7352 33.3019 61.6183 26.9451 62.7128L26.9274 62.7159L26.9094 62.7174C16.6952 63.5998 10.4215 66.6221 6.92696 69.8442C5.17898 71.4559 4.12903 73.1143 3.61962 74.5802C3.10734 76.0544 3.15083 77.3009 3.52948 78.1254C4.32811 79.8645 5.24754 81.0462 6.45418 81.7409C7.65982 82.435 9.21685 82.6801 11.3651 82.4116C15.6913 81.8708 22.1955 79.2808 32.5009 74.5483C40.9264 70.6791 48.3663 66.6062 52.4331 62.9625C53.4466 62.0544 54.2375 61.1843 54.7806 60.3627C55.3246 59.5397 55.6049 58.7883 55.6343 58.1112C55.6902 56.8205 54.8237 55.5563 52.3468 54.4557L52.196 54.3887ZM26.869 62.2845C6.31178 64.0603 1.37697 74.4701 3.1381 78.3052C6.41327 85.4372 12.1043 84.3939 32.6825 74.9439C49.5348 67.2049 62.6553 58.5627 52.5182 54.0584C51.6471 52.1614 48.3231 53.787 43.5494 56.1217C39.0119 58.3408 33.1646 61.2006 26.869 62.2845Z" fill="#7C7C7C"/>
<path d="M76.1569 93.3474C82.2152 114.175 76.3511 118.046 71.8694 118.926C67.3878 119.806 61.5632 109.641 58.8598 96.221C56.1565 82.8011 57.5981 71.2086 62.0797 70.3284C66.5614 69.4482 73.4536 79.9275 76.1569 93.3474Z" fill="#F5F5F5"/>
<path fill-rule="evenodd" clip-rule="evenodd" d="M74.3235 88.3045L74.3198 88.2864C72.977 81.6208 70.5956 75.6971 68.0064 71.5609C66.7107 69.4911 65.3747 67.8875 64.1067 66.8603C62.8292 65.8253 61.6883 65.4269 60.7513 65.6109C59.8141 65.795 58.97 66.5515 58.2757 67.915C57.584 69.2736 57.0773 71.1697 56.7892 73.4857C56.2138 78.1132 56.5234 84.3174 57.8684 90.9939C59.2133 97.6704 61.3317 103.519 63.6568 107.577C64.8205 109.608 66.0235 111.168 67.1891 112.162C68.359 113.16 69.432 113.54 70.3692 113.355C71.4503 113.143 72.5907 112.755 73.6085 111.993C74.6217 111.235 75.5358 110.091 76.1436 108.327C77.3673 104.778 77.3509 98.7126 74.3286 88.3223L74.3235 88.3045ZM70.4551 113.782C74.9368 112.902 80.8009 109.031 74.7426 88.2033C72.0393 74.7834 65.1471 64.3042 60.6654 65.1844C56.1838 66.0646 54.7422 77.6571 57.4455 91.077C60.1489 104.497 65.9735 114.662 70.4551 113.782Z" fill="#7C7C7C"/>
<path d="M83.1856 82.8598C94.4121 100.076 91.9862 104.4 88.7838 106.227C85.5814 108.055 82.1404 108.049 71.5888 89.4772C65.2946 78.3989 62.7882 67.9369 65.9905 66.1095C69.1929 64.2822 76.8914 71.7815 83.1856 82.8598Z" fill="#F5F5F5"/>
<path fill-rule="evenodd" clip-rule="evenodd" d="M86.0211 84.9001L86.0145 84.8884C82.8819 79.3748 79.4075 74.7664 76.3329 71.7714C74.7935 70.2717 73.3725 69.1946 72.1607 68.604C70.9345 68.0063 70.0234 67.9523 69.4086 68.3032C68.7937 68.654 68.3751 69.4668 68.2621 70.8286C68.1505 72.1744 68.3497 73.9487 68.8509 76.0408C69.8519 80.2191 72.0333 85.5653 75.1659 91.0789C80.443 100.367 83.9062 104.943 86.4145 106.98C87.6575 107.989 88.6298 108.344 89.4448 108.374C90.264 108.403 90.9956 108.107 91.7718 107.664C92.5297 107.232 93.2104 106.669 93.6623 105.832C94.1133 104.995 94.3605 103.84 94.1699 102.176C93.7857 98.8224 91.6359 93.5104 86.0285 84.9114L86.0211 84.9001ZM91.9868 108.043C95.1892 106.215 97.6151 101.891 86.3886 84.675C80.0944 73.5967 72.3959 66.0974 69.1935 67.9247C65.9912 69.752 68.4976 80.2141 74.7918 91.2924C85.3434 109.864 88.7844 109.87 91.9868 108.043Z" fill="#7C7C7C"/>
<path d="M92.0741 69.3151C108.395 80.6795 108.868 87.3044 106.133 90.7959C103.399 94.2874 91.4673 91.8062 82.1708 81.9589C71.6714 73.5869 65.3769 63.9697 68.1116 60.4781C70.8463 56.9866 81.5747 60.9431 92.0741 69.3151Z" fill="#F5F5F5"/>
<path fill-rule="evenodd" clip-rule="evenodd" d="M93.914 72.987L93.9029 72.9781C88.6795 68.8131 83.4127 65.7581 79.1306 64.1789C76.9873 63.3885 75.1142 62.9766 73.6285 62.9664C72.1364 62.9561 71.113 63.3485 70.5462 64.0722C69.9793 64.7959 69.8375 65.8912 70.1922 67.3536C70.5455 68.8096 71.3755 70.5532 72.6331 72.4745C75.1455 76.3132 79.3085 80.7773 84.532 84.9424L84.5561 84.9616L84.5774 84.9841C89.1762 89.8554 94.4198 92.8963 98.8336 94.2881C101.042 94.9844 103.026 95.2627 104.607 95.1624C106.201 95.0613 107.314 94.5825 107.889 93.8483C108.526 93.0343 108.971 92.0468 109.05 90.8555C109.129 89.6619 108.842 88.2309 107.962 86.5293C106.195 83.112 102.068 78.6645 93.9256 72.9951L93.914 72.987ZM84.2658 85.2822C93.5623 95.1295 105.494 97.6106 108.228 94.1191C110.963 90.6276 110.49 84.0028 94.1691 72.6383C83.6697 64.2663 72.9413 60.3099 70.2065 63.8014C67.4718 67.2929 73.7664 76.9102 84.2658 85.2822Z" fill="#7C7C7C"/>
<path d="M94.0834 59.9752C117.483 60.2763 117.63 68.6447 116.751 72.0987C115.872 75.5526 107.442 80.2061 90.9017 72.4831C78.5059 69.1905 69.1693 63.7214 70.0479 60.2675C70.9265 56.8135 81.6876 56.6827 94.0834 59.9752Z" fill="#F5F5F5"/>
<path fill-rule="evenodd" clip-rule="evenodd" d="M98.6071 61.3471L98.5555 61.3333C92.3842 59.6942 86.635 58.9117 82.3344 58.9639C80.181 58.9901 78.4161 59.2255 77.1498 59.6519C75.8634 60.0851 75.2089 60.6722 75.045 61.3166C74.8811 61.9609 75.1729 62.7994 76.0901 63.8179C76.9929 64.8205 78.4222 65.9043 80.2906 66.9987C84.0219 69.1844 89.4162 71.3618 95.5875 73.001L95.6246 73.0109L95.6595 73.0272C103.877 76.8643 110.034 77.6045 114.213 76.9903C116.302 76.6832 117.892 76.0386 119.002 75.2798C120.118 74.5168 120.726 73.6568 120.912 72.9257C121.329 71.2865 121.499 68.5273 118.815 66.1159C116.085 63.6642 110.334 61.498 98.6603 61.3477L98.6071 61.3471ZM95.4806 73.4211C112.021 81.1442 120.451 76.4907 121.33 73.0367C122.209 69.5828 122.062 61.2144 98.6623 60.9133C86.2665 57.6207 75.5055 57.7516 74.6269 61.2055C73.7483 64.6595 83.0848 70.1286 95.4806 73.4211Z" fill="#7C7C7C"/>
<path d="M113.828 37.0066C115.684 41.0487 115.043 48.4245 93.5101 55.199C81.1894 60.857 69.6968 62.167 67.8406 58.125C65.9844 54.0829 74.18 49.2258 86.0616 38.9792C101.228 28.6613 111.971 32.9646 113.828 37.0066Z" fill="#F5F5F5"/>
<path fill-rule="evenodd" clip-rule="evenodd" d="M97.4831 50.4553L97.5086 50.4472C108.251 47.0674 113.697 43.561 116.236 40.4629C117.499 38.922 118.039 37.4881 118.165 36.2181C118.291 34.9455 118.005 33.805 117.566 32.8494C116.734 31.0361 113.778 28.9912 109.044 28.7047C104.347 28.4205 97.969 29.8827 90.4555 34.9892C87.5416 37.5016 84.8497 39.69 82.4773 41.6187L82.3439 41.7271C79.931 43.6888 77.8607 45.3749 76.2202 46.8655C74.5743 48.361 73.3942 49.6309 72.7362 50.7551C72.0861 51.8656 71.9783 52.7721 72.3623 53.6083C72.7447 54.441 73.6542 55.0649 75.1264 55.4084C76.5909 55.7501 78.5323 55.7926 80.8295 55.5307C85.4187 55.0076 91.3278 53.2819 97.4587 50.4665L97.4831 50.4553ZM97.6404 50.8621C119.173 44.0875 119.814 36.7117 117.958 32.6697C116.102 28.6277 105.358 24.3243 90.1918 34.6422C87.2756 37.1572 84.5814 39.3475 82.2034 41.2807C74.8927 47.224 70.5703 50.7381 71.9709 53.788C73.8271 57.83 85.3197 56.52 97.6404 50.8621Z" fill="#7C7C7C"/>
<path d="M118.093 54.9914C118.224 59.0088 112.657 62.4071 92.8867 62.9004C78.8344 63.251 67.3363 60.2785 67.205 56.2611C67.0736 52.2438 78.3588 48.7028 92.4111 48.3522C116.152 46.2802 117.962 50.974 118.093 54.9914Z" fill="#F5F5F5"/>
<path fill-rule="evenodd" clip-rule="evenodd" d="M96.7735 47.9065L96.7602 47.9068C89.7622 48.0814 83.4692 49.0505 78.9554 50.4668C76.6956 51.1759 74.9061 51.9896 73.6989 52.8548C72.4764 53.7309 71.9455 54.5881 71.9711 55.3706C71.9966 56.1531 72.5827 56.9824 73.8604 57.7962C75.1221 58.5998 76.962 59.3229 79.2644 59.9182C83.8634 61.1071 90.2094 61.7608 97.2074 61.5862C107.081 61.3398 113.358 60.3678 117.137 58.9793C119.025 58.2857 120.257 57.4995 121.006 56.6776C121.745 55.8671 122.026 55.0105 121.996 54.1224C121.964 53.1438 121.831 52.1831 121.325 51.3035C120.824 50.4321 119.929 49.5903 118.28 48.9105C114.948 47.537 108.653 46.8697 96.7867 47.9053L96.7735 47.9065ZM96.746 47.4724C82.6937 47.823 71.4085 51.364 71.5398 55.3814C71.6711 59.3987 83.1693 62.3712 97.2216 62.0206C116.992 61.5273 122.559 58.129 122.428 54.1117C122.296 50.0943 120.486 45.4005 96.746 47.4724Z" fill="#7C7C7C"/>
<path d="M73.8195 50.5891C77.4316 58.4546 74.0516 67.7277 66.2701 71.3012C58.4886 74.8746 49.2523 71.3952 45.6403 63.5297C42.0282 55.6641 45.4082 46.391 53.1897 42.8175C60.9712 39.2441 70.2075 42.7235 73.8195 50.5891Z" fill="#F9BA46"/>
<path fill-rule="evenodd" clip-rule="evenodd" d="M68.2757 72.0567C76.1652 68.4336 79.5922 59.0317 75.9299 51.0569C72.2677 43.0821 62.9032 39.5544 55.0136 43.1774C47.1241 46.8005 43.6971 56.2024 47.3594 64.1772C51.0216 72.152 60.3861 75.6798 68.2757 72.0567ZM68.4574 72.4523C76.5631 68.73 80.0839 59.0705 76.3213 50.8772C72.5588 42.6839 62.9377 39.0595 54.8319 42.7818C46.7262 46.5042 43.2054 56.1637 46.968 64.357C50.7305 72.5502 60.3516 76.1746 68.4574 72.4523Z" fill="#7C7C7C"/>
<path fill-rule="evenodd" clip-rule="evenodd" d="M179.383 84.3341C183.544 79.5118 188.157 76.6279 193.471 76.1478L193.41 75.471C187.866 75.9719 183.104 78.9821 178.869 83.8902C174.638 88.7943 170.913 95.6149 167.437 103.791C161.967 116.656 157.086 132.944 151.816 150.53C150.389 155.29 148.934 160.146 147.431 165.055C140.371 188.112 132.249 212.356 121.049 233.503C109.848 254.65 95.5835 272.67 76.2545 283.309L76.5822 283.904C96.0725 273.177 110.416 255.029 121.649 233.821C132.882 212.613 141.019 188.315 148.081 165.254C149.588 160.332 151.046 155.467 152.474 150.701C157.742 133.122 162.609 116.884 168.062 104.057C171.528 95.9064 175.219 89.1603 179.383 84.3341Z" fill="#7C7C7C"/>
<path fill-rule="evenodd" clip-rule="evenodd" d="M182.523 89.0297C186.8 84.5191 191.483 81.8058 196.807 81.3248L196.746 80.648C191.211 81.148 186.384 83.9701 182.03 88.5622C177.68 93.1505 173.786 99.5215 170.107 107.16C164.223 119.378 158.861 134.903 153.065 151.686C151.616 155.883 150.139 160.159 148.62 164.481C141.023 186.103 132.365 208.914 120.762 228.986C109.159 249.058 94.6253 266.368 75.2896 277.01L75.6173 277.606C95.101 266.881 109.713 249.458 121.35 229.326C132.987 209.195 141.663 186.332 149.261 164.706C150.784 160.372 152.264 156.089 153.715 151.887C159.51 135.108 164.854 119.634 170.719 107.455C174.385 99.8434 178.243 93.5442 182.523 89.0297Z" fill="#67A949"/>
<path d="M184.207 31.0643C191.841 41.8651 198.243 50.9843 195.346 53.4707C192.45 55.9572 183.37 52.9005 174.848 42.7994C160.099 29.8081 160.65 18.61 163.547 16.1235C166.443 13.6371 170.725 11.9905 184.207 31.0643Z" fill="#F5F5F5"/>
<path fill-rule="evenodd" clip-rule="evenodd" d="M172.923 40.1565L172.942 40.1799C177.173 45.1935 181.527 48.4416 185.16 50.1279C186.978 50.9715 188.601 51.4176 189.928 51.508C191.262 51.5988 192.246 51.3282 192.855 50.806C193.394 50.3426 193.574 49.518 193.272 48.1895C192.974 46.8757 192.23 45.2071 191.139 43.2458C188.96 39.329 185.466 34.3696 181.644 28.9624C174.904 19.427 170.511 15.1447 167.487 13.5329C165.991 12.7354 164.861 12.6083 163.957 12.791C163.043 12.9757 162.299 13.4884 161.592 14.0949C160.974 14.6254 160.426 15.6783 160.205 17.2235C159.986 18.7578 160.099 20.7366 160.757 23.0574C162.074 27.6968 165.57 33.6795 172.9 40.1363L172.923 40.1565ZM172.625 40.4527C181.147 50.5538 190.226 53.6105 193.123 51.1241C196.019 48.6376 189.618 39.5184 181.984 28.7176C168.502 9.64383 164.22 11.2904 161.324 13.7769C158.427 16.2633 157.876 27.4614 172.625 40.4527Z" fill="#7C7C7C"/>
<path fill-rule="evenodd" clip-rule="evenodd" d="M213.508 30.5406L213.478 30.5728C209.556 34.7745 206.68 38.9197 205.173 42.3614C204.42 44.0834 204.019 45.6059 203.987 46.858C203.955 48.1046 204.287 49.0496 204.96 49.6872C205.628 50.3185 206.638 50.5907 207.971 50.4661C209.304 50.3414 210.909 49.8228 212.688 48.9383C216.243 47.1709 220.407 43.984 224.323 39.7882C228.236 35.5963 231.254 30.9364 232.904 26.9731C233.729 24.9897 234.203 23.2015 234.286 21.7456C234.369 20.2817 234.055 19.2273 233.399 18.6064C232.757 17.999 231.599 17.7787 230.006 18.0345C228.434 18.2871 226.538 18.99 224.547 20.0809C220.565 22.2628 216.281 25.9528 213.53 30.5029L213.508 30.5406ZM213.175 30.287C205.293 38.7329 201.538 47.0263 204.674 49.9937C207.81 52.9611 216.743 48.5199 224.625 40.074C232.508 31.6282 236.821 21.2673 233.685 18.2999C230.549 15.3325 218.765 21.0402 213.175 30.287Z" fill="#7C7C7C"/>
<path d="M223.287 41.4289C215.404 49.8748 206.55 54.3895 203.51 51.5128C200.47 48.6362 204.289 40.4039 212.171 31.9581C217.81 22.758 228.254 17.8693 231.294 20.746C234.334 23.6227 231.169 32.983 223.287 41.4289Z" fill="#F5F5F5"/>
<path d="M226.717 66.2009C214.227 66.7273 203.982 63.5976 203.834 59.2106C203.686 54.8235 213.69 50.8403 226.18 50.3139C238.685 46.94 248.915 52.9171 249.063 57.3042C249.211 61.6913 244.969 66.7946 226.717 66.2009Z" fill="#F5F5F5"/>
<path fill-rule="evenodd" clip-rule="evenodd" d="M230.745 66.6705L230.761 66.671C239.861 66.967 245.399 65.8381 248.627 64.1382C250.235 63.2916 251.259 62.3093 251.874 61.3003C252.488 60.2925 252.709 59.2344 252.675 58.2107C252.643 57.2691 252.061 56.169 250.923 55.0806C249.794 54.0004 248.16 52.9736 246.13 52.1784C242.071 50.5891 236.478 49.9441 230.312 51.6076L230.268 51.6196L230.222 51.6215C224.011 51.8833 218.435 53.0045 214.445 54.593C212.448 55.388 210.871 56.2914 209.809 57.2445C208.745 58.2002 208.246 59.1604 208.277 60.082C208.308 61.0036 208.87 61.9191 209.996 62.7824C211.119 63.6435 212.753 64.4115 214.798 65.0361C218.884 66.2842 224.519 66.9329 230.73 66.6711L230.745 66.6705ZM230.207 51.2028C217.718 51.7293 207.713 55.7124 207.861 60.0995C208.009 64.4866 218.254 67.6163 230.744 67.0899C248.996 67.6836 253.239 62.5803 253.09 58.1932C252.942 53.8061 242.713 47.829 230.207 51.2028Z" fill="#7C7C7C"/>
<path d="M201.531 25.9745C201.176 37.0936 199.301 50.9291 195.742 50.8418C192.356 62.3997 187.866 37.4577 188.221 26.3387C187.083 15.0518 192.17 5.59633 195.729 5.68365C199.288 5.77097 203.594 13.769 201.531 25.9745Z" fill="#F5F5F5"/>
<path fill-rule="evenodd" clip-rule="evenodd" d="M203.127 23.8723L203.132 23.844C204.153 17.8012 203.593 12.8246 202.357 9.36606C201.739 7.63547 200.957 6.29855 200.131 5.39653C199.301 4.48936 198.462 4.05731 197.726 4.03925C197.017 4.02186 196.141 4.48741 195.21 5.50606C194.292 6.5109 193.382 7.99165 192.607 9.84265C191.06 13.5422 190.084 18.6571 190.646 24.2298L190.648 24.2576L190.647 24.2856C190.471 29.8014 191.5 38.7784 192.994 44.9281C193.366 46.4633 193.766 47.8123 194.179 48.8818C194.598 49.9659 195.013 50.7121 195.393 51.0901C195.579 51.2756 195.721 51.3353 195.815 51.3449C195.896 51.3529 196.008 51.3319 196.167 51.1887C196.333 51.0386 196.526 50.7733 196.733 50.3479C196.938 49.9267 197.146 49.371 197.354 48.6627L197.445 48.3516L197.766 48.3594C198.063 48.3667 198.378 48.2333 198.717 47.8944C199.061 47.5516 199.402 47.0242 199.733 46.3172C200.393 44.9051 200.964 42.8758 201.441 40.4683C202.393 35.661 202.949 29.4471 203.126 23.901L203.127 23.8723ZM190.232 24.2754C189.877 35.3944 194.367 60.3364 197.753 48.7784C201.312 48.8657 203.187 35.0302 203.542 23.9112C205.604 11.7057 201.299 3.70761 197.74 3.6203C194.181 3.53298 189.094 12.9884 190.232 24.2754Z" fill="#7C7C7C"/>
<path d="M226.395 52.8101C215.716 57.2971 204.866 58.1911 203.317 54.3901C201.767 50.5891 213.816 42.3051 224.495 37.8182C236.234 34.1959 241.182 35.2549 242.731 39.0559C244.28 42.8568 236.848 49.5475 226.395 52.8101Z" fill="#F5F5F5"/>
<path fill-rule="evenodd" clip-rule="evenodd" d="M229.656 51.6916L229.675 51.6857C234.856 50.0686 239.275 47.6054 242.196 45.0929C243.658 43.8354 244.727 42.5806 245.336 41.4305C245.946 40.2779 246.069 39.2844 245.746 38.4934C245.388 37.6132 244.838 36.9028 244.048 36.3753C243.253 35.845 242.192 35.485 240.791 35.3462C237.98 35.0677 233.879 35.6865 228.034 37.4886C222.728 39.7201 217.085 42.8927 212.967 45.973C210.903 47.5168 209.242 49.0229 208.197 50.3615C207.674 51.031 207.319 51.6413 207.138 52.1786C206.958 52.7128 206.957 53.1488 207.102 53.5042C207.418 54.28 208.237 54.8827 209.586 55.2489C210.926 55.6127 212.71 55.7188 214.806 55.5659C218.993 55.2606 224.331 53.9291 229.638 51.6993L229.656 51.6916ZM227.896 37.094C217.216 41.581 205.168 49.865 206.717 53.6659C208.266 57.4669 219.116 56.5729 229.796 52.0859C240.249 48.8233 247.681 42.1327 246.131 38.3317C244.582 34.5307 239.635 33.4717 227.896 37.094Z" fill="#7C7C7C"/>
<path d="M213.086 34.1924C205.15 47.0861 204.738 56.8615 198.519 52.3728C189.791 53.7988 199.549 26.7377 199.549 26.7377C199.549 26.7377 206.557 5.99456 214.413 8.71203C217.557 9.79921 221.021 21.2987 213.086 34.1924Z" fill="#F5F5F5"/>
<path fill-rule="evenodd" clip-rule="evenodd" d="M200.895 47.5896L201.033 47.6895C202.538 48.7755 203.564 48.9097 204.4 48.5173C205.299 48.0958 206.126 47.0129 207.064 45.2622C207.694 44.086 208.346 42.6665 209.094 41.0392C209.449 40.2666 209.826 39.4472 210.232 38.5847C211.487 35.9182 213.008 32.8739 215.003 29.6316C218.926 23.2573 220.021 17.2449 219.759 12.7104C219.628 10.4409 219.158 8.55012 218.539 7.17194C217.91 5.76865 217.166 4.98096 216.546 4.76653C214.786 4.15781 213.031 4.83693 211.321 6.35373C209.611 7.87001 208.026 10.1602 206.667 12.5687C205.312 14.9711 204.198 17.4616 203.422 19.3544C203.034 20.3001 202.732 21.095 202.526 21.6528C202.424 21.9317 202.345 22.1513 202.293 22.3007C202.266 22.3755 202.246 22.4327 202.233 22.471L202.218 22.5141L202.215 22.5248L202.214 22.5279C202.214 22.5279 202.214 22.528 201.82 22.3957C201.82 22.3957 208.828 1.65258 216.684 4.37005C219.827 5.45723 223.292 16.9567 215.356 29.8504C212.737 34.1059 210.938 38.0218 209.479 41.1973C206.517 47.643 204.956 51.038 200.789 48.0308C192.062 49.4568 201.82 22.3957 201.82 22.3957C202.211 22.5361 202.211 22.5363 202.211 22.5363L202.204 22.5548L202.184 22.6119C202.166 22.6625 202.139 22.7378 202.105 22.8361C202.036 23.0326 201.936 23.3212 201.811 23.6883C201.562 24.4226 201.217 25.4705 200.829 26.7237C200.052 29.2316 199.11 32.555 198.439 35.8296C197.766 39.1172 197.378 42.3064 197.681 44.5678C197.832 45.7005 198.149 46.538 198.631 47.049C199.089 47.5352 199.745 47.7775 200.726 47.6172L200.895 47.5896ZM201.82 22.3957L202.214 22.5279L202.212 22.532L202.211 22.5363L201.82 22.3957Z" fill="#7C7C7C"/>
<path d="M193.241 27.476C198.8 39.0684 200.706 49.7476 197.497 51.3287C194.288 52.9097 187.18 44.7939 181.621 33.2015C172.154 17.9685 174.155 10.9298 177.364 9.34876C180.573 7.76771 185.705 7.8605 193.241 27.476Z" fill="#F5F5F5"/>
<path fill-rule="evenodd" clip-rule="evenodd" d="M190.994 23.1409L190.988 23.1252C187.224 13.3279 184.086 8.48425 181.542 6.27754C180.28 5.18277 179.181 4.75222 178.234 4.66855C177.285 4.58463 176.441 4.84514 175.68 5.22031C174.289 5.90554 173.014 7.84927 173.289 11.617C173.564 15.3826 175.393 20.8834 180.109 28.4725L180.121 28.4917L180.13 28.5121C182.899 34.2843 186.046 39.177 188.888 42.4218C190.311 44.0465 191.641 45.2395 192.794 45.928C193.963 46.6268 194.845 46.7469 195.452 46.4479C196.059 46.1488 196.51 45.3721 196.69 44.0081C196.868 42.6644 196.764 40.8671 196.383 38.7292C195.621 34.4596 193.769 28.9282 191.001 23.156L190.994 23.1409ZM179.756 28.6968C185.315 40.2893 192.423 48.4051 195.632 46.824C198.841 45.243 196.935 34.5638 191.376 22.9713C183.84 3.35586 178.708 3.26307 175.499 4.84413C172.29 6.42518 170.289 13.4638 179.756 28.6968Z" fill="#7C7C7C"/>
<path d="M196.436 55.202C196.55 59.7318 185.201 64.2134 170.501 64.7024C155.473 68.0281 143.375 63.7441 143.205 56.9731C143.092 52.4433 154.916 48.3746 169.616 47.8856C184.315 47.3965 196.323 50.6722 196.436 55.202Z" fill="#F5F5F5"/>
<path fill-rule="evenodd" clip-rule="evenodd" d="M166.794 64.9712L166.832 64.9699C174.148 64.7265 180.614 63.4895 185.223 61.7612C187.529 60.8962 189.349 59.9162 190.577 58.8929C191.812 57.8631 192.386 56.8457 192.362 55.9021C192.339 54.969 191.699 54.0198 190.371 53.1128C189.053 52.2124 187.13 51.4085 184.726 50.7526C179.922 49.4421 173.288 48.7472 165.968 48.9908C158.647 49.2343 152.059 50.3692 147.329 51.9969C144.961 52.8116 143.082 53.7419 141.811 54.7285C140.53 55.7223 139.939 56.7124 139.963 57.6456C140.04 60.7484 142.868 63.4215 147.746 64.9092C152.589 66.386 159.296 66.6303 166.757 64.9795L166.794 64.9712ZM166.843 65.3888C151.814 68.7144 139.716 64.4304 139.547 57.6594C139.433 53.1296 151.258 49.061 165.957 48.5719C180.656 48.0828 192.665 51.3585 192.778 55.8883C192.891 60.4181 181.542 64.8997 166.843 65.3888Z" fill="#7C7C7C"/>
<path d="M168.533 80.9944C148.26 94.6678 146.301 89.9071 144.38 86.3646C142.458 82.8222 148 74.5 162 68C174 62.4285 183.565 59.675 185.487 63.2174C187.409 66.7599 179.818 74.7189 168.533 80.9944Z" fill="#F5F5F5"/>
<path fill-rule="evenodd" clip-rule="evenodd" d="M171.339 76.5331L171.355 76.5262C177.294 74.0728 182.353 71.1029 185.732 68.2957C187.423 66.8905 188.674 65.5416 189.409 64.3353C190.148 63.1203 190.32 62.1282 190.018 61.3732C189.715 60.6182 188.909 60.03 187.544 59.6847C186.188 59.3419 184.365 59.263 182.187 59.4557C177.838 59.8408 172.174 61.3005 166.234 63.7539L166.204 63.7663L166.173 63.7739C158.671 65.5848 153.574 68.6401 150.547 71.6736C149.033 73.1912 148.044 74.6956 147.523 76.0285C147 77.3676 146.963 78.4953 147.285 79.2979C147.316 79.3763 147.347 79.4547 147.379 79.5328C147.727 80.4088 148.065 81.2561 148.643 81.9476C149.251 82.675 150.143 83.2451 151.665 83.3863C153.209 83.5294 155.404 83.2307 158.588 82.181C161.767 81.1329 165.904 79.3459 171.322 76.5414L171.339 76.5331ZM166.079 63.3668C150.955 67.0176 145.399 75.7167 146.898 79.4575C146.931 79.5377 146.963 79.6185 146.995 79.6997C148.467 83.4034 150.26 87.9122 171.51 76.9132C183.445 71.9833 191.904 64.9543 190.404 61.2136C188.904 57.4728 178.014 58.4369 166.079 63.3668Z" fill="#7C7C7C"/>
<path d="M196.662 53.6063C199.975 63.7769 185.316 59.9508 168.897 52.8678C148.847 44.2187 144.427 40.8136 147.425 33.8648C149.037 30.1283 159.681 26.9479 174.217 40.5336C184.147 48.3562 198.217 50.0012 196.662 53.6063Z" fill="#F5F5F5"/>
<path fill-rule="evenodd" clip-rule="evenodd" d="M193.015 50.5274L193.078 50.3807C193.213 50.0686 193.185 49.7944 192.997 49.4958C192.792 49.17 192.394 48.8194 191.784 48.4385C190.566 47.6784 188.681 46.9046 186.387 45.9796C186.266 45.931 186.144 45.882 186.022 45.8326C181.512 44.0165 175.643 41.6525 170.757 37.8034L170.743 37.7926L170.731 37.7807C163.508 31.0305 157.294 28.4848 152.73 28.0596C150.447 27.8468 148.582 28.1645 147.202 28.7453C145.815 29.3294 144.95 30.1648 144.604 30.9682C143.873 32.6626 143.619 34.0839 143.9 35.3969C144.18 36.7087 145.009 37.9826 146.588 39.3488C149.767 42.1001 155.82 45.0899 165.86 49.4213C174.069 52.9625 181.788 55.6661 187.024 56.2294C188.328 56.3697 189.462 56.3751 190.401 56.2341C191.342 56.093 192.061 55.809 192.566 55.3932C193.527 54.6004 193.873 53.1638 193.064 50.6787L193.015 50.5274ZM171.015 37.4725C156.478 23.8868 145.834 27.0672 144.222 30.8037C141.225 37.7525 145.644 41.1576 165.694 49.8067C182.113 56.8898 196.772 60.7158 193.459 50.5452C194.257 48.6969 190.947 47.3638 186.194 45.4494C181.676 43.6296 175.854 41.2846 171.015 37.4725Z" fill="#7C7C7C"/>
<path d="M180.557 92.8352C169.54 110.615 162.983 108.911 159.46 106.267C155.938 103.623 159.464 92.8903 167.337 82.2941C175.209 71.698 184.447 65.2513 187.969 67.8949C191.492 70.5386 188.429 82.2391 180.557 92.8352Z" fill="#F5F5F5"/>
<path fill-rule="evenodd" clip-rule="evenodd" d="M182.988 88.2675L182.998 88.2532C186.909 82.9901 189.617 77.4615 190.91 72.9372C191.558 70.6732 191.845 68.6811 191.763 67.1097C191.68 65.5264 191.229 64.4517 190.493 63.899C189.756 63.3462 188.67 63.2294 187.245 63.6117C185.825 63.9926 184.139 64.8529 182.293 66.1409C178.606 68.7143 174.36 72.9393 170.443 78.2109C166.527 83.4826 163.702 88.7746 162.294 93.0589C161.59 95.2033 161.248 97.0721 161.288 98.5486C161.328 100.031 161.748 101.045 162.485 101.597C163.334 102.235 164.348 102.802 165.551 103.04C166.748 103.277 168.158 103.193 169.813 102.491C173.147 101.078 177.483 97.1526 182.978 88.2827L182.988 88.2675ZM162.234 101.934C165.757 104.578 172.314 106.283 183.331 88.5026C191.203 77.9065 194.266 66.2059 190.743 63.5623C187.221 60.9186 177.983 67.3654 170.111 77.9615C162.238 88.5576 158.712 99.2906 162.234 101.934Z" fill="#7C7C7C"/>
<path d="M192.607 91.105C187.514 110.258 182.85 111.31 179.474 110.194C176.098 109.078 173.882 106.609 180.383 87.0644C184.26 75.4059 190.14 66.8594 193.516 67.9751C196.892 69.0909 196.485 79.4465 192.607 91.105Z" fill="#F5F5F5"/>
<path fill-rule="evenodd" clip-rule="evenodd" d="M192.975 94.4538L192.979 94.4414C194.909 88.6391 195.97 83.1758 196.132 79.0401C196.213 76.9693 196.069 75.256 195.71 74.0065C195.347 72.7422 194.798 72.0545 194.15 71.8402C193.502 71.626 192.649 71.8504 191.6 72.6482C190.564 73.4365 189.421 74.7241 188.245 76.4331C185.897 79.8464 183.473 84.8591 181.543 90.6615C178.292 100.436 177.247 105.871 177.406 108.982C177.485 110.524 177.858 111.45 178.363 112.053C178.87 112.659 179.554 112.992 180.373 113.263C181.172 113.527 182.014 113.652 182.906 113.435C183.796 113.219 184.784 112.65 185.853 111.44C188.008 109.001 190.428 104.033 192.972 94.4663L192.975 94.4538ZM180.24 113.661C183.616 114.777 188.28 113.725 193.373 94.5718C197.251 82.9133 197.658 72.5577 194.282 71.4419C190.906 70.3262 185.026 78.8727 181.149 90.5312C174.648 110.076 176.864 112.545 180.24 113.661Z" fill="#7C7C7C"/>
<path d="M208.049 88.7353C210.436 107.763 205.994 112.377 201.727 112.67C197.461 112.963 191.54 102.812 192.598 89.7967C191.823 76.8708 194.654 66.1548 198.92 65.8617C203.187 65.5686 207.274 75.8094 208.049 88.7353Z" fill="#F5F5F5"/>
<path fill-rule="evenodd" clip-rule="evenodd" d="M206.812 91.4604L206.811 91.4467C206.426 85.0161 205.217 79.2708 203.586 75.1832C202.769 73.1373 201.856 71.5293 200.904 70.458C199.949 69.3821 199.007 68.9019 198.123 68.9627C197.239 69.0234 196.362 69.6285 195.543 70.8263C194.728 72.0189 194.014 73.7387 193.448 75.8796C192.319 80.1568 191.806 86.0205 192.191 92.4511L192.193 92.4808L192.191 92.5106C191.667 98.9492 192.871 104.669 194.722 108.73C195.648 110.762 196.728 112.363 197.821 113.431C198.922 114.509 199.983 114.997 200.88 114.935C201.875 114.867 202.869 114.548 203.774 113.836C204.68 113.122 205.52 111.994 206.172 110.265C207.481 106.794 208.005 100.966 206.814 91.4739L206.812 91.4604ZM191.776 92.4796C190.718 105.495 196.638 115.646 200.905 115.353C205.171 115.06 209.613 110.446 207.227 91.4182C206.452 78.4923 202.365 68.2515 198.098 68.5446C193.831 68.8377 191.001 79.5537 191.776 92.4796Z" fill="#7C7C7C"/>
<path d="M216.038 84.1483C230.92 101.111 225.018 106.616 221.976 108.215C218.934 109.814 210.159 106.774 205.021 89.9387C199.383 78.9313 197.278 68.7119 200.32 67.1129C203.362 65.5139 210.399 73.1409 216.038 84.1483Z" fill="#F5F5F5"/>
<path fill-rule="evenodd" clip-rule="evenodd" d="M215.789 87.4175L215.765 87.3709C212.908 81.7939 209.715 77.0816 206.87 73.9704C205.446 72.4126 204.125 71.2747 202.994 70.6253C201.845 69.9657 200.998 69.868 200.43 70.1663C199.863 70.4646 199.454 71.2222 199.325 72.5539C199.198 73.8648 199.356 75.6134 199.794 77.6901C200.667 81.8373 202.632 87.1954 205.489 92.7723L205.506 92.8059L205.517 92.8419C208.139 101.342 211.629 106.325 214.796 108.982C216.379 110.311 217.878 111.055 219.145 111.375C220.419 111.696 221.43 111.582 222.074 111.244C223.518 110.485 225.601 108.819 225.572 105.291C225.542 101.703 223.337 96.0919 215.823 87.4569L215.789 87.4175ZM205.119 92.9668C210.396 110.075 219.225 113.22 222.267 111.621C225.309 110.022 231.194 104.484 216.135 87.1764C210.397 75.9744 203.279 68.1896 200.237 69.7885C197.195 71.3875 199.381 81.7648 205.119 92.9668Z" fill="#7C7C7C"/>
<path d="M245.237 83.4776C243.538 87.4158 237.839 91.7155 219.091 80.6562C207.087 75.4778 198.733 68.0874 200.432 64.1492C202.13 60.211 210.899 62.9501 225.908 64.8531C243.088 69.0638 246.936 79.5394 245.237 83.4776Z" fill="#F5F5F5"/>
<path fill-rule="evenodd" clip-rule="evenodd" d="M225.054 80.4425L225.076 80.4556C234.43 85.973 240.456 87.6129 244.315 87.4338C246.234 87.3447 247.61 86.8062 248.601 86.0771C249.595 85.3464 250.227 84.4057 250.629 83.4746C251.391 81.7078 250.949 78.27 248.1 74.6928C245.273 71.1441 240.11 67.5167 231.603 65.4273C227.922 64.9603 224.617 64.4433 221.704 63.9876L221.541 63.962C218.578 63.4986 216.034 63.1029 213.907 62.8891C211.773 62.6746 210.102 62.6483 208.872 62.9021C207.657 63.1528 206.937 63.6604 206.586 64.4751C206.236 65.2865 206.376 66.3408 207.079 67.6174C207.78 68.8874 209.002 70.306 210.672 71.7832C214.008 74.7344 219.057 77.8554 225.03 80.4322L225.054 80.4425ZM224.864 80.8177C243.612 91.8769 249.311 87.5773 251.01 83.6391C252.709 79.7009 248.861 69.2253 231.681 65.0145C227.997 64.5474 224.689 64.03 221.77 63.5733C212.794 62.1692 207.487 61.339 206.205 64.3106C204.506 68.2488 212.86 75.6393 224.864 80.8177Z" fill="#7C7C7C"/>
<path d="M235.101 98.1382C232.307 100.824 226.28 99.0279 213.17 85.1784C203.852 75.3346 198.563 65.177 201.357 62.4908C204.151 59.8046 213.97 65.6069 223.289 75.4507C240.091 91.1264 237.896 95.452 235.101 98.1382Z" fill="#F5F5F5"/>
<path fill-rule="evenodd" clip-rule="evenodd" d="M226.423 78.2896L226.414 78.2803C221.774 73.3781 217.019 69.4938 213.091 67.1731C211.125 66.0112 209.387 65.2538 207.988 64.9469C206.572 64.6362 205.615 64.8088 205.071 65.3321C204.527 65.8553 204.31 66.8103 204.552 68.251C204.79 69.6737 205.459 71.4587 206.518 73.4928C208.633 77.5555 212.259 82.5249 216.9 87.4271C223.447 94.3439 228.194 98.2148 231.627 100.027C233.342 100.932 234.701 101.308 235.773 101.314C236.83 101.321 237.625 100.969 238.243 100.375C238.924 99.721 239.526 99.0052 239.83 98.0753C240.131 97.1542 240.157 95.9693 239.58 94.3489C238.414 91.0752 234.831 86.1335 226.432 78.2984L226.423 78.2896ZM226.716 77.9898C217.398 68.1461 207.579 62.3437 204.785 65.03C201.991 67.7162 207.28 77.8738 216.598 87.7176C229.708 101.567 235.735 103.364 238.529 100.677C241.323 97.9912 243.519 93.6656 226.716 77.9898Z" fill="#7C7C7C"/>
<path d="M209.69 63.5714C206.384 71.2349 197.558 74.796 189.976 71.5254C182.395 68.2549 178.928 59.391 182.234 51.7275C185.54 44.0641 194.366 40.5029 201.948 43.7735C209.529 47.0441 212.996 55.9079 209.69 63.5714Z" fill="#F9BA46"/>
<path fill-rule="evenodd" clip-rule="evenodd" d="M190.729 73.4501C198.416 76.7661 207.364 73.1554 210.716 65.3855C214.068 57.6156 210.554 48.6286 202.867 45.3126C195.18 41.9966 186.231 45.6073 182.879 53.3772C179.528 61.1471 183.042 70.134 190.729 73.4501ZM190.562 73.8355C198.46 77.2424 207.654 73.5328 211.097 65.55C214.541 57.5672 210.931 48.3341 203.033 44.9272C195.136 41.5203 185.942 45.2299 182.498 53.2127C179.054 61.1955 182.665 70.4286 190.562 73.8355Z" fill="#7C7C7C"/>
<path fill-rule="evenodd" clip-rule="evenodd" d="M127.985 118.307C125.31 112.527 121.667 108.486 116.689 106.564L116.934 105.93C122.127 107.936 125.879 112.139 128.602 118.021C131.323 123.9 133.029 131.481 134.125 140.298C135.849 154.171 136.066 171.173 136.301 189.53C136.364 194.499 136.429 199.568 136.525 204.701C136.978 228.81 138.124 254.353 143.082 277.763C148.041 301.174 156.804 322.42 172.465 337.961L171.987 338.444C156.195 322.773 147.39 301.383 142.418 277.904C137.445 254.426 136.298 228.827 135.846 204.714C135.749 199.567 135.684 194.489 135.621 189.514C135.386 171.163 135.169 154.213 133.451 140.381C132.358 131.592 130.663 124.092 127.985 118.307Z" fill="#7C7C7C"/>
<path fill-rule="evenodd" clip-rule="evenodd" d="M123.676 121.959C120.803 116.447 117.046 112.551 112.059 110.625L112.304 109.992C117.489 111.993 121.354 116.033 124.278 121.645C127.2 127.252 129.194 134.448 130.632 142.803C132.932 156.168 133.821 172.568 134.782 190.298C135.022 194.732 135.267 199.249 135.539 203.822C136.903 226.699 138.959 251.011 144.599 273.499C150.24 295.987 159.457 316.624 175.124 332.17L174.645 332.653C158.859 316.987 149.597 296.219 143.94 273.665C138.283 251.111 136.225 226.744 134.861 203.862C134.588 199.277 134.342 194.752 134.102 190.313C133.141 172.588 132.255 156.24 129.962 142.919C128.529 134.593 126.551 127.476 123.676 121.959Z" fill="#67A949"/>
<path d="M95.8402 85.6829C108.489 87.1767 119.14 88.4694 119.054 92.1444C118.967 95.8193 110.931 100.349 98.2104 99.9414C79.4107 102.129 71.7509 94.52 71.8372 90.8451C71.9235 87.1701 73.5032 83.0448 95.8402 85.6829Z" fill="#F9BA46"/>
<path fill-rule="evenodd" clip-rule="evenodd" d="M95.0789 99.6166L95.1084 99.6176C101.422 99.8196 106.552 98.7955 110.099 97.2814C111.874 96.5239 113.239 95.6498 114.159 94.758C115.083 93.8614 115.523 92.9828 115.542 92.211C115.558 91.5261 115.083 90.8661 113.938 90.2263C112.805 89.5937 111.132 89.0509 109.025 88.5685C104.818 87.6051 99.0175 86.9109 92.6852 86.163C81.5184 84.8442 75.6235 85.2297 72.5218 86.3557C70.9872 86.9128 70.1678 87.6402 69.7163 88.4049C69.2598 89.1779 69.1473 90.0408 69.1263 90.9373C69.1079 91.7213 69.5082 92.7922 70.4721 93.9453C71.4293 95.0904 72.9179 96.2849 75.0033 97.3085C79.1722 99.3548 85.7061 100.707 95.0497 99.62L95.0789 99.6166ZM95.0989 100.021C107.819 100.428 115.856 95.8987 115.942 92.2238C116.028 88.5488 105.377 87.2561 92.7287 85.7623C70.3918 83.1242 68.812 87.2495 68.7257 90.9245C68.6395 94.5994 76.2992 102.208 95.0989 100.021Z" fill="#7C7C7C"/>
<path fill-rule="evenodd" clip-rule="evenodd" d="M114.341 64.3735L114.345 64.4157C114.826 69.9293 115.94 74.6583 117.433 77.9536C118.18 79.6025 119.012 80.8698 119.887 81.6995C120.759 82.5256 121.649 82.897 122.539 82.8255C123.421 82.7546 124.267 82.207 125.036 81.1724C125.806 80.1383 126.469 78.655 126.982 76.812C128.007 73.1291 128.408 68.0954 127.928 62.5896C127.448 57.0889 126.057 51.9263 124.283 48.1926C123.395 46.3241 122.421 44.8331 121.432 43.8358C120.438 42.8332 119.481 42.3785 118.614 42.4482C117.766 42.5163 116.862 43.2036 116.019 44.5084C115.187 45.7964 114.468 47.6061 113.967 49.7339C112.963 53.9897 112.844 59.4331 114.329 64.3329L114.341 64.3735ZM113.946 64.4478C114.913 75.5306 118.43 83.5606 122.575 83.2277C126.719 82.8948 129.294 73.6404 128.327 62.5576C127.36 51.4747 122.723 41.7131 118.579 42.046C114.435 42.3789 110.928 54.4904 113.946 64.4478Z" fill="#7C7C7C"/>
<path d="M128.149 64.3417C129.116 75.4246 126.541 84.6789 122.397 85.0118C118.252 85.3447 114.735 77.3148 113.768 66.2319C110.75 56.2746 114.11 45.6393 118.254 45.3064C122.398 44.9735 127.182 53.2588 128.149 64.3417Z" fill="#F9BA46"/>
<path d="M148.374 77.892C140.705 87.1706 131.865 92.4874 128.63 89.7672C125.394 87.0471 128.988 77.3202 136.658 68.0416C142.299 56.9175 153.167 53.4463 156.402 56.1664C159.638 58.8865 160.558 65.2105 148.374 77.892Z" fill="#F9BA46"/>
<path fill-rule="evenodd" clip-rule="evenodd" d="M151.306 75.3111L151.316 75.3004C157.391 68.9774 160.15 64.2867 161.013 60.8811C161.443 59.1848 161.4 57.8191 161.074 56.7288C160.748 55.6399 160.133 54.8002 159.378 54.1654C158.684 53.5816 157.521 53.2896 156.009 53.4026C154.509 53.5147 152.721 54.0231 150.844 54.9641C147.092 56.8449 143.027 60.4329 140.246 65.9176L140.226 65.9572L140.197 65.9914C136.384 70.6056 133.594 75.3184 132.161 79.1975C131.444 81.1389 131.074 82.8499 131.072 84.2239C131.071 85.6013 131.436 86.5772 132.116 87.1486C132.796 87.72 133.813 87.9072 135.156 87.6575C136.496 87.4084 138.099 86.7337 139.863 85.6725C143.388 83.5522 147.483 79.9367 151.297 75.3226L151.306 75.3111ZM139.889 65.7318C132.219 75.0104 128.625 84.7373 131.861 87.4574C135.096 90.1775 143.936 84.8608 151.605 75.5822C163.789 62.9007 162.869 56.5767 159.633 53.8566C156.398 51.1364 145.53 54.6076 139.889 65.7318Z" fill="#7C7C7C"/>
<path d="M103.358 70.0045C111.087 77.4216 119.783 87.6763 117.427 90.1676C123.518 100.037 102.774 87.1828 95.0439 79.7658C86.2323 73.3092 82.7416 63.577 85.097 61.0857C87.4524 58.5944 95.9505 60.6653 103.358 70.0045Z" fill="#F9BA46"/>
<path fill-rule="evenodd" clip-rule="evenodd" d="M102.882 67.5074L102.864 67.4858C99.1971 62.8621 95.2745 60.0567 92.0031 58.7131C90.3661 58.0408 88.905 57.7397 87.7277 57.7494C86.5436 57.7591 85.6941 58.081 85.2071 58.5961C84.7379 59.0924 84.5063 60.0199 84.6359 61.3421C84.7638 62.6464 85.2371 64.2521 86.0631 65.9987C87.7141 69.4895 90.7462 73.4834 95.0968 76.6712L95.1185 76.6871L95.1379 76.7058C98.9724 80.3851 106.06 85.4323 111.424 88.3247C112.763 89.0468 113.986 89.6298 115.018 90.0229C116.064 90.4215 116.865 90.6056 117.38 90.5771C117.633 90.5631 117.767 90.5003 117.835 90.4386C117.892 90.3864 117.95 90.2924 117.949 90.0866C117.949 89.8707 117.884 89.5617 117.713 89.1395C117.543 88.7213 117.279 88.2144 116.906 87.6096L116.742 87.3439L116.955 87.1191C117.151 86.9112 117.258 86.6002 117.235 86.1387C117.211 85.6721 117.053 85.0879 116.76 84.3959C116.174 83.0137 115.09 81.2976 113.674 79.4054C110.846 75.6272 106.757 71.2262 102.901 67.5266L102.882 67.5074ZM94.8628 76.9968C102.593 84.4138 123.337 97.2679 117.246 87.3986C119.601 84.9073 110.906 74.6526 103.177 67.2355C95.7693 57.8963 87.2712 55.8254 84.9158 58.3167C82.5604 60.808 86.0511 70.5402 94.8628 76.9968Z" fill="#7C7C7C"/>
<path d="M138.583 69.4958C134.915 80.0298 128.565 88.3717 124.846 87.0319C121.128 85.6922 122.961 71.7317 126.629 61.1977C131.598 50.4621 135.544 47.603 139.262 48.9427C142.981 50.2825 142.982 59.9122 138.583 69.4958Z" fill="#F9BA46"/>
<path fill-rule="evenodd" clip-rule="evenodd" d="M139.883 66.4409L139.891 66.4236C142.072 61.6735 143.155 56.9242 143.238 53.215C143.28 51.3586 143.071 49.7849 142.64 48.6081C142.208 47.4286 141.576 46.7009 140.802 46.4221C139.941 46.1118 139.079 46.0473 138.192 46.2734C137.3 46.5007 136.359 47.0282 135.357 47.9416C133.347 49.774 131.148 53.108 128.673 58.4522C126.851 63.688 125.487 69.7706 125.039 74.7022C124.814 77.1739 124.822 79.3329 125.107 80.9434C125.25 81.7489 125.458 82.3962 125.725 82.872C125.992 83.3451 126.303 83.6264 126.651 83.7517C127.41 84.0252 128.369 83.8273 129.5 83.0977C130.624 82.373 131.849 81.1646 133.09 79.566C135.569 76.3722 138.054 71.6939 139.877 66.459L139.883 66.4409ZM128.301 58.2973C124.633 68.8313 122.8 82.7917 126.519 84.1315C130.237 85.4713 136.587 77.1293 140.255 66.5953C144.654 57.0117 144.653 47.3821 140.934 46.0423C137.216 44.7025 133.271 47.5616 128.301 58.2973Z" fill="#7C7C7C"/>
<path d="M116.683 67.0279C120.8 81.0138 127.531 87.606 120.312 89.1662C115.71 96.3317 102.627 71.9142 102.627 71.9142C102.627 71.9142 92.2949 53.5356 99.3012 49.6629C102.104 48.1135 112.567 53.042 116.683 67.0279Z" fill="#F9BA46"/>
<path fill-rule="evenodd" clip-rule="evenodd" d="M118.419 84.3842L118.58 84.3495C120.326 83.972 121.083 83.3242 121.341 82.4729C121.618 81.5583 121.376 80.2687 120.727 78.4695C120.291 77.2608 119.696 75.8794 119.013 74.2959C118.688 73.5441 118.344 72.7467 117.989 71.9005C116.889 69.2844 115.69 66.2345 114.654 62.7175C112.619 55.8033 109.021 51.1462 105.607 48.4125C103.898 47.0444 102.242 46.1631 100.857 45.7179C99.4468 45.2646 98.4042 45.2892 97.8513 45.5948C96.2819 46.4623 95.637 48.1563 95.6209 50.3576C95.6048 52.558 96.2229 55.1679 97.0715 57.6921C97.9178 60.2097 98.9828 62.6115 99.8377 64.3862C100.265 65.2728 100.639 66.0015 100.906 66.5079C101.039 66.7611 101.146 66.9587 101.219 67.0926C101.255 67.1596 101.284 67.2107 101.303 67.2448L101.324 67.2832L101.329 67.2926L101.331 67.2954C101.331 67.2954 101.331 67.2954 100.982 67.4921C100.982 67.4921 90.65 49.1134 97.6564 45.2407C100.459 43.6914 110.922 48.6198 115.038 62.6057C116.397 67.2218 118.041 71.0324 119.373 74.1225C122.079 80.395 123.504 83.6988 118.667 84.744C114.065 91.9095 100.982 67.4921 100.982 67.4921C101.335 67.3027 101.335 67.3028 101.335 67.3029L101.344 67.3196L101.372 67.371C101.396 67.4164 101.433 67.484 101.481 67.572C101.577 67.7479 101.719 68.0055 101.902 68.331C102.267 68.982 102.795 69.9047 103.442 70.9897C104.736 73.161 106.508 75.9767 108.42 78.5661C110.339 81.1657 112.372 83.4978 114.186 84.7381C115.094 85.3594 115.898 85.6719 116.573 85.6566C117.216 85.642 117.812 85.3286 118.33 84.5229L118.419 84.3842ZM100.982 67.4921L101.331 67.2954L101.333 67.2991L101.335 67.3029L100.982 67.4921Z" fill="#7C7C7C"/>
<path d="M99.0918 76.9053C110.971 80.394 119.842 85.9097 118.906 89.2249C117.971 92.5401 107.583 92.3995 95.704 88.9107C78.7027 85.8731 74.954 79.9063 75.8895 76.5911C76.825 73.2759 80.1975 69.6625 99.0918 76.9053Z" fill="#F9BA46"/>
<path fill-rule="evenodd" clip-rule="evenodd" d="M94.5412 75.7211L94.5261 75.7153C85.089 72.0977 79.6011 71.2229 76.3825 71.6225C74.7858 71.8207 73.7695 72.3301 73.1 72.9535C72.4286 73.5786 72.0712 74.3508 71.8492 75.1374C71.4437 76.5743 72.0137 78.7389 74.8876 80.9693C77.7599 83.1983 82.8751 85.4332 91.3451 86.9466L91.3665 86.9504L91.3875 86.9566C97.3022 88.6937 102.832 89.5927 106.985 89.649C109.065 89.6771 110.776 89.4935 112.011 89.1123C113.264 88.7253 113.918 88.1719 114.095 87.5448C114.272 86.9177 114.007 86.0944 113.147 85.0866C112.299 84.0938 110.946 83.0103 109.17 81.9061C105.623 79.7009 100.471 77.4628 94.5567 75.7257L94.5412 75.7211ZM91.2782 87.3439C103.157 90.8326 113.545 90.9732 114.48 87.658C115.416 84.3428 106.545 78.8271 94.666 75.3384C75.7717 68.0956 72.3992 71.709 71.4637 75.0242C70.5282 78.3394 74.2769 84.3062 91.2782 87.3439Z" fill="#7C7C7C"/>
<path d="M121.741 92.6029C125.056 95.4399 120.952 106.45 111.833 117.286C104.532 130.185 93.672 136.084 88.7165 131.844C85.4013 129.007 90.1065 117.923 99.2259 107.087C108.345 96.2505 118.426 89.7659 121.741 92.6029Z" fill="#F9BA46"/>
<path fill-rule="evenodd" clip-rule="evenodd" d="M108.891 119.989L108.915 119.961C113.454 114.568 116.734 109.143 118.466 104.731C119.333 102.523 119.803 100.589 119.862 99.0513C119.921 97.5034 119.562 96.4378 118.871 95.8468C118.188 95.2624 117.097 95.1085 115.592 95.4749C114.098 95.8386 112.285 96.6967 110.266 97.9952C106.234 100.589 101.463 104.89 96.9211 110.286C92.3796 115.683 88.9478 121.129 87.0655 125.563C86.1233 127.783 85.5787 129.727 85.4658 131.273C85.3521 132.829 85.6802 133.89 86.3632 134.475C88.6341 136.418 92.3688 136.116 96.5762 133.583C100.753 131.068 105.249 126.425 108.873 120.022L108.891 119.989ZM109.222 120.223C101.921 133.122 91.0607 139.022 86.1052 134.781C82.79 131.944 87.4951 120.86 96.6145 110.024C105.734 99.1878 115.814 92.7033 119.129 95.5402C122.445 98.3772 118.341 109.387 109.222 120.223Z" fill="#7C7C7C"/>
<path d="M121.48 129.067C118.207 152.386 113.538 150.721 109.764 149.814C105.99 148.908 102.255 139.696 107.815 125.784C110.593 113.664 115.905 104.574 119.678 105.48C123.452 106.387 124.259 116.947 121.48 129.067Z" fill="#F9BA46"/>
<path fill-rule="evenodd" clip-rule="evenodd" d="M121.137 125.596L121.141 125.579C122.524 119.547 123.01 113.919 122.688 109.702C122.527 107.591 122.164 105.857 121.626 104.607C121.084 103.349 120.401 102.661 119.64 102.478C118.878 102.295 117.967 102.6 116.935 103.48C115.91 104.354 114.832 105.742 113.77 107.56C111.649 111.19 109.639 116.452 108.257 122.484L108.25 122.514L108.238 122.543C105.48 129.444 105.04 135.149 105.735 139.217C106.083 141.252 106.714 142.867 107.47 144.018C108.231 145.175 109.096 145.833 109.905 146.027C109.984 146.047 110.063 146.066 110.142 146.085C111.024 146.299 111.878 146.506 112.743 146.438C113.653 146.365 114.598 145.983 115.557 144.865C116.53 143.733 117.518 141.843 118.468 138.757C119.416 135.676 120.318 131.431 121.135 125.613L121.137 125.596ZM107.866 122.39C102.306 136.302 106.042 145.513 109.815 146.42C109.896 146.439 109.978 146.459 110.059 146.479C113.789 147.386 118.329 148.491 121.531 125.673C124.31 113.553 123.503 102.992 119.729 102.086C115.956 101.179 110.644 110.27 107.866 122.39Z" fill="#7C7C7C"/>
<path d="M119.998 91.2901C129.412 95.4709 117.23 103.498 101.583 110.687C82.4764 119.466 77.192 120.436 74.1495 113.814C72.5135 110.253 77.094 100.586 96.1826 98.9331C108.178 96.8655 118.42 87.8545 119.998 91.2901Z" fill="#F9BA46"/>
<path fill-rule="evenodd" clip-rule="evenodd" d="M115.445 91.917L115.381 91.7772C115.244 91.4797 115.03 91.3229 114.695 91.2651C114.33 91.2021 113.823 91.2608 113.157 91.4523C111.828 91.8345 110.06 92.6846 107.92 93.7312C107.808 93.7863 107.694 93.8418 107.58 93.8978C103.375 95.9553 97.9017 98.6335 91.9992 99.6509L91.9827 99.6538L91.966 99.6552C82.4815 100.476 76.6565 103.284 73.4121 106.276C71.7893 107.773 70.8146 109.313 70.3418 110.675C69.8664 112.044 69.907 113.201 70.2588 113.967C71.0007 115.581 71.8546 116.679 72.9752 117.323C74.0948 117.968 75.5407 118.195 77.5354 117.945C81.5526 117.442 87.5917 115.036 97.1601 110.64C104.983 107.046 111.891 103.263 115.667 99.8783C116.608 99.0349 117.342 98.2269 117.846 97.4639C118.351 96.6995 118.611 96.0017 118.638 95.373C118.69 94.1744 117.885 93.0007 115.585 91.9792L115.445 91.917ZM91.9284 99.2532C72.8399 100.906 68.2594 110.573 69.8954 114.134C72.9378 120.756 78.2222 119.786 97.3289 111.007C112.976 103.818 125.158 95.791 115.744 91.6102C114.935 89.8489 111.849 91.359 107.416 93.5277C103.203 95.5891 97.7741 98.2456 91.9284 99.2532Z" fill="#7C7C7C"/>
<path d="M137.701 128.089C143.33 147.428 137.886 151.023 133.724 151.841C129.563 152.659 124.153 143.221 121.64 130.76C119.128 118.299 120.464 107.535 124.626 106.716C128.787 105.898 135.189 115.628 137.701 128.089Z" fill="#F9BA46"/>
<path fill-rule="evenodd" clip-rule="evenodd" d="M135.998 123.406L135.995 123.39C134.747 117.2 132.534 111.7 130.129 107.86C128.926 105.938 127.685 104.449 126.507 103.496C125.321 102.535 124.261 102.165 123.391 102.336C122.521 102.507 121.737 103.21 121.093 104.476C120.451 105.738 119.981 107.498 119.714 109.649C119.18 113.946 119.469 119.707 120.719 125.907C121.969 132.106 123.937 137.537 126.097 141.304C127.177 143.19 128.295 144.639 129.377 145.561C130.464 146.487 131.46 146.84 132.331 146.669C133.334 146.471 134.393 146.111 135.338 145.403C136.279 144.699 137.128 143.636 137.692 141.999C138.827 138.702 138.811 133.07 136.003 123.423L135.998 123.406ZM132.41 147.065C136.572 146.247 142.016 142.651 136.387 123.312C133.875 110.851 127.473 101.122 123.311 101.94C119.15 102.758 117.813 113.523 120.326 125.984C122.839 138.445 128.249 147.883 132.41 147.065Z" fill="#7C7C7C"/>
<path d="M144.226 118.349C154.654 134.333 152.402 138.349 149.428 140.047C146.455 141.744 143.26 141.739 133.459 124.496C127.612 114.21 125.283 104.496 128.256 102.798C131.229 101.101 138.379 108.063 144.226 118.349Z" fill="#F9BA46"/>
<path fill-rule="evenodd" clip-rule="evenodd" d="M146.86 120.243L146.853 120.232C143.944 115.113 140.717 110.835 137.861 108.054C136.431 106.662 135.112 105.662 133.986 105.113C132.848 104.559 132.002 104.509 131.431 104.835C130.86 105.161 130.471 105.915 130.367 107.18C130.263 108.43 130.449 110.077 130.914 112.02C131.845 115.899 133.871 120.863 136.781 125.983C141.683 134.606 144.899 138.855 147.229 140.746C148.383 141.683 149.286 142.012 150.043 142.04C150.804 142.067 151.483 141.792 152.204 141.38C152.907 140.979 153.539 140.456 153.959 139.678C154.377 138.902 154.607 137.828 154.429 136.283C154.072 133.17 152.075 128.238 146.866 120.254L146.86 120.243ZM152.403 141.732C155.377 140.034 157.628 136.018 147.201 120.034C141.354 109.748 134.204 102.786 131.231 104.483C128.258 106.181 130.587 115.895 136.434 126.181C146.235 143.424 149.43 143.429 152.403 141.732Z" fill="#7C7C7C"/>
<path d="M152.477 105.77C167.634 116.32 168.075 122.472 165.536 125.714C162.997 128.957 151.918 126.655 143.284 117.513C133.533 109.74 127.686 100.811 130.225 97.5686C132.764 94.326 142.726 97.998 152.477 105.77Z" fill="#F9BA46"/>
<path fill-rule="evenodd" clip-rule="evenodd" d="M154.186 109.18L154.176 109.171C149.325 105.305 144.434 102.469 140.457 101.003C138.467 100.27 136.728 99.8876 135.348 99.8784C133.963 99.8691 133.012 100.234 132.486 100.906C131.96 101.578 131.828 102.595 132.158 103.953C132.486 105.305 133.257 106.924 134.425 108.708C136.759 112.272 140.625 116.416 145.477 120.283L145.499 120.301L145.519 120.322C149.79 124.844 154.659 127.667 158.758 128.958C160.809 129.605 162.651 129.863 164.12 129.769C165.6 129.675 166.633 129.23 167.167 128.548C167.758 127.792 168.171 126.875 168.244 125.769C168.317 124.661 168.051 123.332 167.233 121.752C165.592 118.579 161.758 114.45 154.197 109.187L154.186 109.18ZM145.229 120.598C153.864 129.741 164.943 132.042 167.482 128.8C170.021 125.557 169.58 119.406 154.423 108.856C144.672 101.084 134.709 97.4117 132.171 100.654C129.632 103.897 135.479 112.826 145.229 120.598Z" fill="#7C7C7C"/>
<path d="M154.341 97.0972C176.069 97.3728 176.207 105.143 175.392 108.351C174.576 111.558 166.748 115.881 151.389 108.712C139.878 105.657 131.207 100.58 132.022 97.3728C132.838 94.1654 142.83 94.0421 154.341 97.0972Z" fill="#F9BA46"/>
<path fill-rule="evenodd" clip-rule="evenodd" d="M158.542 98.3701L158.494 98.3574C152.764 96.8364 147.425 96.1108 143.432 96.1601C141.432 96.1848 139.793 96.4036 138.617 96.7998C137.423 97.2023 136.815 97.7476 136.663 98.3459C136.511 98.9443 136.782 99.7228 137.634 100.668C138.473 101.599 139.8 102.605 141.535 103.621C145 105.65 150.01 107.671 155.741 109.192L155.775 109.201L155.807 109.216C163.439 112.778 169.156 113.464 173.036 112.893C174.977 112.608 176.452 112.009 177.483 111.304C178.519 110.595 179.084 109.797 179.256 109.118C179.643 107.596 179.801 105.034 177.307 102.795C174.772 100.519 169.432 98.5082 158.592 98.3707L158.542 98.3701ZM155.641 109.582C171.001 116.751 178.829 112.428 179.644 109.221C180.46 106.013 180.322 98.2428 158.594 97.9673C147.083 94.9121 137.09 95.0355 136.275 98.2429C135.46 101.45 144.13 106.527 155.641 109.582Z" fill="#7C7C7C"/>
<path d="M172.671 75.7658C174.396 79.5187 173.802 86.3678 153.808 92.6622C142.369 97.9182 131.697 99.1366 129.973 95.3836C128.249 91.6307 135.858 87.1191 146.889 77.6023C160.97 68.0187 170.947 72.0128 172.671 75.7658Z" fill="#F9BA46"/>
<path fill-rule="evenodd" clip-rule="evenodd" d="M157.497 88.2568L157.52 88.2493C167.495 85.1091 172.551 81.8522 174.908 78.9749C176.081 77.5439 176.582 76.2122 176.699 75.033C176.816 73.8512 176.55 72.7923 176.142 71.905C175.369 70.2213 172.623 68.3231 168.228 68.0579C163.867 67.7947 157.944 69.1537 150.968 73.8967C148.263 76.2301 145.764 78.2627 143.561 80.054L143.437 80.1547C141.197 81.9768 139.275 83.5427 137.752 84.9272C136.224 86.3161 135.128 87.4955 134.517 88.5395C133.914 89.5708 133.814 90.4126 134.171 91.189C134.526 91.9622 135.371 92.5414 136.738 92.8601C138.098 93.1771 139.9 93.2162 142.033 92.9727C146.295 92.4861 151.782 90.8826 157.474 88.2672L157.497 88.2568ZM157.643 88.6345C177.636 82.3401 178.23 75.491 176.506 71.738C174.781 67.9851 164.804 63.991 150.723 73.5745C148.016 75.9104 145.515 77.9447 143.307 79.7403C136.519 85.2603 132.506 88.5241 133.807 91.3559C135.532 95.1089 146.203 93.8905 157.643 88.6345Z" fill="#7C7C7C"/>
<path d="M176.635 92.4652C176.758 96.1955 171.589 99.3521 153.231 99.8136C140.182 100.142 129.505 97.3835 129.382 93.6531C129.259 89.9227 139.738 86.6327 152.786 86.3046C174.831 84.3766 176.512 88.7348 176.635 92.4652Z" fill="#F9BA46"/>
<path fill-rule="evenodd" clip-rule="evenodd" d="M156.838 85.89L156.825 85.8903C150.327 86.0537 144.484 86.9546 140.293 88.2706C138.194 88.9294 136.533 89.6853 135.412 90.4889C134.277 91.3027 133.784 92.0987 133.808 92.8253C133.832 93.5519 134.376 94.3219 135.563 95.0773C136.735 95.8233 138.443 96.4944 140.581 97.0468C144.852 98.1499 150.745 98.7559 157.243 98.5925C166.411 98.362 172.24 97.4584 175.749 96.1684C177.501 95.5239 178.645 94.7937 179.341 94.0304C180.027 93.2777 180.287 92.4822 180.26 91.6575C180.23 90.7488 180.106 89.8568 179.636 89.0401C179.171 88.231 178.339 87.4495 176.808 86.8185C173.714 85.5438 167.868 84.9252 156.85 85.8889L156.838 85.89ZM156.812 85.487C143.763 85.815 133.285 89.105 133.408 92.8354C133.53 96.5658 144.208 99.3239 157.256 98.9959C175.615 98.5344 180.783 95.3779 180.661 91.6475C180.538 87.9171 178.856 83.5589 156.812 85.487Z" fill="#7C7C7C"/>
<path d="M135.523 88.385C138.879 95.6881 135.742 104.299 128.517 107.619C121.292 110.939 112.714 107.709 109.359 100.406C106.004 93.1031 109.14 84.4917 116.366 81.1722C123.591 77.8526 132.168 81.0819 135.523 88.385Z" fill="#F5F5F5"/>
<path fill-rule="evenodd" clip-rule="evenodd" d="M130.379 108.32C137.705 104.955 140.885 96.2238 137.483 88.8192C134.081 81.4147 125.385 78.1406 118.059 81.5063C110.734 84.8719 107.553 93.6029 110.955 101.007C114.358 108.412 123.054 111.686 130.379 108.32ZM130.548 108.688C138.074 105.23 141.342 96.2597 137.846 88.6523C134.351 81.0449 125.417 77.6811 117.891 81.1389C110.365 84.5968 107.097 93.567 110.592 101.174C114.087 108.782 123.022 112.146 130.548 108.688Z" fill="#7C7C7C"/>
</g>
<defs>
<filter id="filter0_d_285_82" x="1.88232" y="0.673279" width="265.212" height="351.771" filterUnits="userSpaceOnUse" color-interpolation-filters="sRGB">
<feFlood flood-opacity="0" result="BackgroundImageFix"/>
<feColorMatrix in="SourceAlpha" type="matrix" values="0 0 0 0 0 0 0 0 0 0 0 0 0 0 0 0 0 0 127 0" result="hardAlpha"/>
<feOffset dx="10" dy="10"/>
<feGaussianBlur stdDeviation="2"/>
<feComposite in2="hardAlpha" operator="out"/>
<feColorMatrix type="matrix" values="0 0 0 0 0 0 0 0 0 0 0 0 0 0 0 0 0 0 0.25 0"/>
<feBlend mode="normal" in2="BackgroundImageFix" result="effect1_dropShadow_285_82"/>
<feBlend mode="normal" in="SourceGraphic" in2="effect1_dropShadow_285_82" result="shape"/>
</filter>
</defs>
</svg>
