<svg width="26" height="20" viewBox="0 0 26 20" fill="none" xmlns="http://www.w3.org/2000/svg">
<path d="M25.1877 12.7641C25.1127 12.5586 25.0246 12.3579 24.9239 12.1633L20.2558 1.73298C20.2117 1.63252 20.1484 1.54124 20.0695 1.46401C19.736 1.13637 19.34 0.876463 18.9042 0.69914C18.4683 0.521817 18.0012 0.430549 17.5295 0.430549C17.0577 0.430549 16.5906 0.521817 16.1548 0.69914C15.719 0.876463 15.323 1.13637 14.9894 1.46401C14.8216 1.62899 14.7272 1.85253 14.7268 2.08573V4.84157H11.1351V2.08573C11.1352 1.96988 11.112 1.85516 11.0669 1.7481C11.0219 1.64105 10.9558 1.54376 10.8724 1.4618C10.5389 1.13416 10.1429 0.874258 9.70707 0.696935C9.27125 0.519612 8.80413 0.428345 8.33239 0.428345C7.86065 0.428345 7.39352 0.519612 6.9577 0.696935C6.52188 0.874258 6.12589 1.13416 5.79236 1.4618C5.71343 1.53904 5.6502 1.63032 5.60604 1.73077L0.937908 12.1611C0.837213 12.3557 0.749116 12.5564 0.67414 12.7619C0.409811 13.4882 0.310386 14.2626 0.382831 15.0307C0.455276 15.7987 0.697838 16.542 1.09352 17.2083C1.48921 17.8746 2.02846 18.4479 2.67348 18.888C3.3185 19.3281 4.05371 19.6244 4.82759 19.7561C5.60147 19.8878 6.39532 19.8518 7.15352 19.6505C7.91171 19.4492 8.61592 19.0875 9.21682 18.5907C9.81771 18.094 10.3008 17.4743 10.6321 16.7749C10.9635 16.0756 11.1351 15.3135 11.1351 14.5421V6.60531H14.7268V14.5421C14.7264 15.3136 14.8978 16.0758 15.2289 16.7754C15.56 17.4749 16.0429 18.0949 16.6437 18.5919C17.2446 19.0888 17.9488 19.4508 18.707 19.6523C19.4652 19.8538 20.2592 19.8901 21.0332 19.7585C21.8072 19.627 22.5425 19.3308 23.1877 18.8907C23.8329 18.4506 24.3722 17.8773 24.768 17.211C25.1639 16.5446 25.4065 15.8013 25.479 15.0331C25.5515 14.265 25.4521 13.4905 25.1877 12.7641ZM7.17405 2.60934C7.47342 2.36178 7.84694 2.21704 8.23778 2.19714C8.62861 2.17724 9.01537 2.28327 9.3392 2.4991V10.6024C8.63813 9.98414 7.78395 9.5577 6.86222 9.36577C5.9405 9.17385 4.9836 9.2232 4.08741 9.50887L7.17405 2.60934ZM5.74746 18.0696C5.03709 18.0696 4.34266 17.8627 3.752 17.4751C3.16135 17.0875 2.70098 16.5366 2.42913 15.892C2.15729 15.2475 2.08616 14.5382 2.22474 13.854C2.36333 13.1697 2.70541 12.5412 3.20772 12.0478C3.71004 11.5545 4.35002 11.2186 5.04675 11.0824C5.74348 10.9463 6.46566 11.0162 7.12196 11.2832C7.77826 11.5502 8.33921 12.0023 8.73388 12.5824C9.12854 13.1625 9.3392 13.8445 9.3392 14.5421C9.3392 15.4777 8.96078 16.3749 8.2872 17.0364C7.61362 17.698 6.70005 18.0696 5.74746 18.0696ZM16.5227 2.498C16.8465 2.28217 17.2332 2.17614 17.6241 2.19604C18.0149 2.21593 18.3884 2.36068 18.6878 2.60824L21.7744 9.50666C20.8782 9.22114 19.9212 9.17197 18.9995 9.36409C18.0777 9.5562 17.2236 9.98285 16.5227 10.6013V2.498ZM20.1144 18.0696C19.404 18.0696 18.7096 17.8627 18.1189 17.4751C17.5283 17.0875 17.0679 16.5366 16.7961 15.892C16.5242 15.2475 16.4531 14.5382 16.5917 13.854C16.7303 13.1697 17.0723 12.5412 17.5747 12.0478C18.077 11.5545 18.717 11.2186 19.4137 11.0824C20.1104 10.9463 20.8326 11.0162 21.4889 11.2832C22.1452 11.5502 22.7061 12.0023 23.1008 12.5824C23.4955 13.1625 23.7061 13.8445 23.7061 14.5421C23.7061 15.4777 23.3277 16.3749 22.6541 17.0364C21.9806 17.698 21.067 18.0696 20.1144 18.0696Z" fill="#4A4949"/>
</svg>
