<svg width="12" height="20" viewBox="0 0 12 20" fill="none" xmlns="http://www.w3.org/2000/svg">
<path d="M0.823692 1.61454C0.740265 1.5326 0.674088 1.43533 0.628937 1.32828C0.583787 1.22123 0.560547 1.10649 0.560547 0.990616C0.560547 0.874743 0.583787 0.760003 0.628937 0.65295C0.674088 0.545897 0.740265 0.448627 0.823692 0.366692C0.907119 0.284757 1.00616 0.219763 1.11516 0.17542C1.22417 0.131077 1.341 0.108254 1.45898 0.108254C1.57696 0.108254 1.69379 0.131077 1.8028 0.17542C1.9118 0.219763 2.01084 0.284757 2.09427 0.366692L11.0736 9.18539C11.1571 9.26729 11.2233 9.36455 11.2685 9.47161C11.3137 9.57867 11.337 9.69342 11.337 9.80932C11.337 9.92521 11.3137 10.04 11.2685 10.147C11.2233 10.2541 11.1571 10.3513 11.0736 10.4332L2.09427 19.2519C1.92578 19.4174 1.69726 19.5104 1.45898 19.5104C1.2207 19.5104 0.992181 19.4174 0.823692 19.2519C0.655203 19.0865 0.560547 18.862 0.560547 18.628C0.560547 18.394 0.655203 18.1696 0.823692 18.0041L9.16886 9.80932L0.823692 1.61454Z" fill="#4A4949"/>
</svg>
