<svg width="12" height="20" viewBox="0 0 12 20" fill="none" xmlns="http://www.w3.org/2000/svg">
<path d="M11.1183 18.0041C11.2017 18.086 11.2679 18.1833 11.3131 18.2904C11.3582 18.3974 11.3814 18.5122 11.3814 18.628C11.3814 18.7439 11.3582 18.8587 11.3131 18.9657C11.2679 19.0728 11.2017 19.17 11.1183 19.252C11.0349 19.3339 10.9358 19.3989 10.8268 19.4432C10.7178 19.4876 10.601 19.5104 10.483 19.5104C10.365 19.5104 10.2482 19.4876 10.1392 19.4432C10.0302 19.3989 9.93115 19.3339 9.84773 19.252L0.868393 10.4333C0.784906 10.3514 0.718676 10.2541 0.673488 10.147C0.628301 10.04 0.605042 9.92523 0.605042 9.80934C0.605042 9.69345 0.628301 9.57869 0.673488 9.47163C0.718676 9.36458 0.784906 9.26732 0.868393 9.18541L9.84773 0.366714C10.0162 0.201239 10.2447 0.108276 10.483 0.108276C10.7213 0.108276 10.9498 0.201239 11.1183 0.366714C11.2868 0.532188 11.3814 0.75662 11.3814 0.990637C11.3814 1.22465 11.2868 1.44909 11.1183 1.61456L2.77313 9.80934L11.1183 18.0041Z" fill="#4A4949"/>
</svg>
